<?xml version="1.0" encoding="utf-8" standalone="no"?>
<!DOCTYPE svg PUBLIC "-//W3C//DTD SVG 1.1//EN"
  "http://www.w3.org/Graphics/SVG/1.1/DTD/svg11.dtd">
<!-- Created with matplotlib (http://matplotlib.org/) -->
<svg height="288pt" version="1.1" viewBox="0 0 432 288" width="432pt" xmlns="http://www.w3.org/2000/svg" xmlns:xlink="http://www.w3.org/1999/xlink">
 <defs>
  <style type="text/css">
*{stroke-linecap:butt;stroke-linejoin:round;}
  </style>
 </defs>
 <g id="figure_1">
  <g id="patch_1">
   <path d="M 0 288 
L 432 288 
L 432 0 
L 0 0 
z
" style="fill:none;"/>
  </g>
  <g id="axes_1">
   <g id="patch_2">
    <path d="M 221.4 44.443636 
C 221.4 44.443636 221.4 44.443636 221.4 44.443636 
L 221.4 143.28 
L 221.4 44.443636 
z
" style="fill:#ffffff;"/>
   </g>
   <g id="patch_3">
    <path d="M 320.236364 143.28 
C 320.236364 130.300928 317.679769 117.44806 312.712893 105.456961 
C 307.746017 93.465862 300.465453 82.569727 291.287863 73.392137 
C 282.110273 64.214547 271.214138 56.933983 259.223039 51.967107 
C 247.23194 47.000231 234.379072 44.443636 221.4 44.443636 
C 208.420928 44.443636 195.56806 47.000231 183.576961 51.967107 
C 171.585862 56.933983 160.689727 64.214547 151.512137 73.392137 
C 142.334547 82.569727 135.053983 93.465862 130.087107 105.456961 
C 125.120231 117.44806 122.563636 130.300928 122.563636 143.28 
C 122.563636 156.259072 125.120231 169.11194 130.087107 181.103039 
C 135.053983 193.094138 142.334547 203.990273 151.512137 213.167863 
C 160.689727 222.345453 171.585862 229.626017 183.576961 234.592893 
C 195.56806 239.559769 208.420928 242.116364 221.4 242.116364 
C 234.379072 242.116364 247.23194 239.559769 259.223039 234.592893 
C 271.214138 229.626017 282.110273 222.345453 291.287863 213.167863 
C 300.465453 203.990273 307.746017 193.094138 312.712893 181.103039 
C 317.679769 169.11194 320.236364 156.259072 320.236364 143.28 
L 315.294545 143.28 
C 315.294545 155.610119 312.865781 167.820343 308.147249 179.211887 
C 303.428717 190.603431 296.51218 200.954759 287.79347 209.67347 
C 279.074759 218.39218 268.723431 225.308717 257.331887 230.027249 
C 245.940343 234.745781 233.730119 237.174545 221.4 237.174545 
C 209.069881 237.174545 196.859657 234.745781 185.468113 230.027249 
C 174.076569 225.308717 163.725241 218.39218 155.00653 209.67347 
C 146.28782 200.954759 139.371283 190.603431 134.652751 179.211887 
C 129.934219 167.820343 127.505455 155.610119 127.505455 143.28 
C 127.505455 130.949881 129.934219 118.739657 134.652751 107.348113 
C 139.371283 95.956569 146.28782 85.605241 155.00653 76.88653 
C 163.725241 68.16782 174.076569 61.251283 185.468113 56.532751 
C 196.859657 51.814219 209.069881 49.385455 221.4 49.385455 
C 233.730119 49.385455 245.940343 51.814219 257.331887 56.532751 
C 268.723431 61.251283 279.074759 68.16782 287.79347 76.88653 
C 296.51218 85.605241 303.428717 95.956569 308.147249 107.348113 
C 312.865781 118.739657 315.294545 130.949881 315.294545 143.28 
z
" style="fill:#ffffff;"/>
   </g>
   <g id="matplotlib.axis_1"/>
   <g id="matplotlib.axis_2"/>
  </g>
 </g>
</svg>
