<svg height="288pt" stroke-linejoin="round" viewBox="0 0 432 288" width="432pt" xmlns="http://www.w3.org/2000/svg"><g stroke-linejoin="round"><path d="m0 288h432v-288h-432z" fill="none"/><g fill="#fff"><path d="m221.4 44.443636v98.836364z"/><path d="m320.236364 143.28c0-12.979072-2.556595-25.83194-7.523471-37.823039s-12.24744-22.887234-21.42503-32.064824-20.073725-16.458154-32.064824-21.42503-24.843967-7.523471-37.823039-7.523471-25.83194 2.556595-37.823039 7.523471-22.887234 12.24744-32.064824 21.42503-16.458154 20.073725-21.42503 32.064824-7.523471 24.843967-7.523471 37.823039 2.556595 25.83194 7.523471 37.823039 12.24744 22.887234 21.42503 32.064824 20.073725 16.458154 32.064824 21.42503 24.843967 7.523471 37.823039 7.523471 25.83194-2.556595 37.823039-7.523471 22.887234-12.24744 32.064824-21.42503 16.458154-20.073725 21.42503-32.064824 7.523471-24.843967 7.523471-37.823039h-4.941819c0 12.330119-2.428764 24.540343-7.147296 35.931887s-11.635069 21.742872-20.353779 30.461583c-8.718711 8.71871-19.070039 15.635247-30.461583 20.353779s-23.601768 7.147296-35.931887 7.147296-24.540343-2.428764-35.931887-7.147296-21.742872-11.635069-30.461583-20.353779c-8.71871-8.718711-15.635247-19.070039-20.353779-30.461583s-7.147296-23.601768-7.147296-35.931887 2.428764-24.540343 7.147296-35.931887 11.635069-21.742872 20.353779-30.461583c8.718711-8.71871 19.070039-15.635247 30.461583-20.353779s23.601768-7.147296 35.931887-7.147296 24.540343 2.428764 35.931887 7.147296 21.742872 11.635069 30.461583 20.353779c8.71871 8.718711 15.635247 19.070039 20.353779 30.461583s7.147296 23.601768 7.147296 35.931887z"/></g></g></svg>