<svg height="288pt" stroke-linejoin="round" viewBox="0 0 432 288" width="432pt" xmlns="http://www.w3.org/2000/svg"><g stroke-linejoin="round"><path d="m0 288h432v-288h-432z" fill="none"/><g fill="#fff"><path d="m227.44219 44.638319c-1.03114-.064874-2.063236-.113547-3.095905-.145999-1.032669-.032453-2.065784-.048683-3.098962-.048683v98.659276z"/><path d="m221.247328 44.443637c-12.825447-.000001-25.528687 2.500911-37.397038 7.362427s-22.675638 11.990991-31.815546 20.988445c-9.139909 8.997454-16.438259 19.691422-21.485596 31.481947-5.047338 11.790525-7.747476 24.452915-7.94893 37.27678s2.099615 25.56482 6.774112 37.508069c4.674497 11.943248 11.633339 22.861186 20.48612 32.141293 8.85278 9.280106 19.430791 16.745529 31.140582 21.977442 11.709791 5.231912 24.328206 8.130609 37.147325 8.533466 12.819119.402858 25.594646-1.697801 37.609845-6.184125 12.015198-4.486324 23.041094-11.272817 32.459109-19.97874s17.048669-19.165367 22.463865-30.791534 8.511737-24.197495 9.115898-37.008704c.604162-12.81121-1.295569-25.618156-5.592613-37.702341s-10.909512-23.215318-19.46643-32.768917c-8.556917-9.5536-18.895214-17.347602-30.434889-22.944746-11.539674-5.597144-24.060813-8.890764-36.860952-9.69608l-.309744 4.923229c12.160133.765051 24.055215 3.89399 35.017905 9.211277 10.962691 5.317286 20.784073 12.721588 28.913145 21.797508 8.129071 9.07592 14.410916 19.650496 18.493108 31.130471 4.082192 11.479976 5.886936 23.646575 5.312983 35.817224-.573954 12.170649-3.515667 24.113411-8.660103 35.158269-5.144437 11.044859-12.393558 20.981331-21.340672 29.251958-8.947115 8.270627-19.421716 14.717795-30.836154 18.979802-11.414439 4.262008-23.55119 6.257634-35.729353 5.87492-12.178163-.382715-24.165657-3.136477-35.289959-8.106794-11.124301-4.970316-21.173411-12.062468-29.583553-20.878569-8.410141-8.816102-15.021041-19.188143-19.461813-30.534229s-6.626788-23.449993-6.435407-35.632665c.191382-12.182672 2.756513-24.211942 7.551483-35.412941 4.794971-11.200999 11.728404-21.360268 20.411317-29.90785 8.682913-8.547581 18.949835-15.320582 30.224769-19.939023 11.274933-4.61844 23.343011-6.994306 35.527186-6.994305z"/></g></g></svg>