<svg height="288pt" stroke-linejoin="round" viewBox="0 0 432 288" width="432pt" xmlns="http://www.w3.org/2000/svg"><g stroke-linejoin="round"><path d="m0 288h432v-288h-432z" fill="none"/><g fill="#fff"><path d="m233.54664 45.22062c-2.047619-.258675-4.102859-.452952-6.162679-.582545s-4.123203-.194437-6.187096-.194437v98.535515z"/><path d="m221.196877 44.443638c-12.679177-.000002-25.239989 2.44726-36.991769 7.207219-11.751779 4.759959-22.47511 11.743744-31.580362 20.567344-9.105251 8.823601-16.42242 19.322273-21.549165 30.918739s-7.967346 24.074209-8.36561 36.747129c-.398263 12.672921 1.653246 25.304405 6.041725 37.199899 4.388478 11.895495 11.031989 22.832901 19.565233 32.210815s18.796899 17.021243 30.226607 22.509712c11.429709 5.488469 23.81207 8.719603 36.466227 9.515736 12.654158.796133 25.343848-.8576 37.371318-4.870267s23.168157-10.309348 32.809479-18.543814c9.641322-8.234467 17.603269-18.252974 23.448045-29.504646s9.463255-23.526431 10.656471-36.149337-.061108-25.35828-3.694004-37.505856c-3.632895-12.147576-9.576532-23.480549-17.504094-33.375764-7.927562-9.895216-17.691035-18.167922-28.753567-24.363237-11.062531-6.195316-23.217574-10.197568-35.796771-11.78669l-.617489 4.887926c11.950238 1.509667 23.497528 5.311806 34.006933 11.197356 10.509405 5.885549 19.784704 13.74462 27.315889 23.145075 7.531184 9.400455 13.177639 20.166779 16.628889 31.706976 3.451251 11.540197 4.642859 23.638802 3.509303 35.630563-1.133555 11.991761-4.57111 23.652782-10.123647 34.34187-5.552537 10.689089-13.116387 20.206671-22.275643 28.029414s-19.742908 13.80459-31.169004 17.616623c-11.426097 3.812034-23.481303 5.38308-35.502753 4.626754-12.021449-.756326-23.784692-3.825904-34.642915-9.039949-10.858223-5.214046-20.608695-12.475208-28.715277-21.384227-8.106582-8.909018-14.417917-19.299554-18.586972-30.600273-4.169054-11.30072-6.117988-23.30063-5.739638-35.339905.378351-12.039274 3.076921-23.89313 7.947329-34.909772 4.870408-11.016643 11.821718-20.990381 20.471707-29.372802s18.837154-15.017016 30.001344-19.538977c11.164191-4.521962 23.096962-6.84686 35.14218-6.846858z"/></g></g></svg>