<svg height="288pt" stroke-linejoin="round" viewBox="0 0 432 288" width="432pt" xmlns="http://www.w3.org/2000/svg"><g stroke-linejoin="round"><path d="m0 288h432v-288h-432z" fill="none"/><g fill="#fff"><path d="m239.698875 46.187721c-3.039133-.579746-6.103903-1.015927-9.184107-1.307092s-6.172421-.43699-9.266356-.43699v98.464797z"/><path d="m221.248429 44.443639c-12.540013-.000003-24.965356 2.395551-36.606548 7.057586s-22.285331 11.505291-31.358907 20.161049-16.410645 18.965717-21.615884 30.374372c-5.205238 11.408655-8.18345 23.707359-8.774167 36.23345-.590717 12.526092 1.216863 25.050488 5.325349 36.898369 4.108485 11.84788 10.442736 22.802564 18.661462 32.273809 8.218725 9.471244 18.171616 17.285834 29.322406 23.022715s23.295548 9.291134 35.779907 10.471254c12.48436 1.180121 25.080001-.035474 37.108265-3.581287 12.028264-3.545814 23.269171-9.356997 33.117055-17.120443 9.847885-7.763445 18.122645-17.33717 24.378431-28.205338 6.255785-10.868167 10.378189-22.832014 12.145093-35.246923 1.766903-12.41491 1.145993-25.05383-1.829275-37.235772-2.975269-12.181941-8.250483-23.684113-15.541412-33.886774-7.290928-10.20266-16.464231-18.919217-27.025646-25.680019-10.561415-6.760801-22.317789-11.442202-34.635683-13.791966l-.922523 4.836036c11.702 2.232275 22.870555 6.679606 32.903899 13.102368 10.033344 6.422761 18.747981 14.70349 25.674364 24.396018 6.926382 9.692527 11.937835 20.619591 14.76434 32.192435 2.826506 11.572844 3.41637 23.579819 1.737812 35.373983-1.678559 11.794164-5.594842 23.159818-11.537839 33.484577-5.942996 10.32476-13.804018 19.419798-23.159508 26.795071-9.355491 7.375273-20.034352 12.895898-31.461203 16.264421-11.426851 3.368522-23.39271 4.523337-35.252851 3.402223-11.860142-1.121115-23.397661-4.497655-33.990912-9.947692s-20.048497-12.873897-27.856286-21.871579c-7.807789-8.997683-13.825328-19.404632-17.728389-30.660119-3.903061-11.255486-5.620263-23.153662-5.059082-35.05345.561182-11.899787 3.390483-23.583555 8.335459-34.421777 4.944977-10.838223 11.915193-20.632684 20.53509-28.855654s18.731829-14.724063 29.790961-19.152996c11.059132-4.428934 22.863209-6.70471 34.776221-6.704708z"/></g></g></svg>