<svg height="288pt" stroke-linejoin="round" viewBox="0 0 432 288" width="432pt" xmlns="http://www.w3.org/2000/svg"><g stroke-linejoin="round"><path d="m0 288h432v-288h-432z" fill="none"/><g fill="#fff"><path d="m245.884569 47.536528c-3.995495-1.025868-8.051522-1.799597-12.144087-2.316608s-8.213582-.776284-12.338675-.776284v98.446956z"/><path d="m221.401794 44.443636c-12.407723.000002-24.704332 2.345707-36.24074 6.913296s-22.105994 11.275254-31.150834 19.768926-16.402936 18.621225-21.685886 29.848069-8.396134 23.351901-9.17522 35.73514.78988 24.802871 4.624078 36.603316 9.864957 22.770353 17.773938 32.330667 17.554531 17.539805 28.427502 23.51727c10.872971 5.977466 22.778623 9.845845 35.088507 11.400945 12.309884 1.555099 24.803526.769064 36.821437-2.316611 12.017911-3.085676 23.344846-8.415728 33.382904-15.708805 10.038059-7.293077 18.607454-16.418557 25.255844-26.894745 6.648389-10.476187 11.256698-22.115448 13.581673-34.303396s2.324975-24.706291-.000001-36.894239-6.933286-23.827209-13.581676-34.303396c-6.648391-10.476186-15.217787-19.601666-25.255845-26.894742-10.038059-7.293076-21.364995-12.623128-33.382906-15.708803l-1.224138 4.767704c11.417016 2.931391 22.177605 7.99494 31.71376 14.923362 9.536156 6.928423 17.677082 15.597628 23.993053 25.550005 6.315971 9.952378 10.693866 21.009676 12.902593 32.588226s2.208727 23.470977.000001 35.049527c-2.208726 11.578551-6.58662 22.635849-12.90259 32.588227-6.315971 9.952378-14.456896 18.621584-23.993051 25.550007-9.536156 6.928423-20.296744 11.991972-31.71376 14.923364-11.417015 2.931393-23.285974 3.678125-34.980364 2.200781s-23.00476-5.152305-33.334082-10.830897c-10.329323-5.678592-19.492595-13.259109-27.006127-22.341407s-13.242753-19.50371-16.885241-30.714133c-3.642489-11.210423-5.133006-23.009074-4.392875-34.773151.740132-11.764077 3.697657-23.282881 8.71646-33.948383 5.018802-10.665501 12.008994-20.286677 20.601591-28.355665 8.592598-8.068988 18.633705-14.44127 29.593293-18.78048 10.959587-4.339209 22.641366-6.567629 34.428702-6.567631z"/></g></g></svg>