<svg height="288pt" stroke-linejoin="round" viewBox="0 0 432 288" width="432pt" xmlns="http://www.w3.org/2000/svg"><g stroke-linejoin="round"><path d="m0 288h432v-288h-432z" fill="none"/><g fill="#fff"><path d="m251.785594 49.263685c-4.906645-1.594265-9.930989-2.800504-15.026623-3.607573-5.095633-.807069-10.246817-1.212476-15.405968-1.212476v98.481931z"/><path d="m221.352996 44.443636c-12.282091.000001-24.456491 2.297628-35.893757 6.774089-11.437267 4.47646-21.936833 11.053254-30.955848 19.390348-9.019016 8.337093-16.399321 18.288284-21.759338 29.339074-5.360018 11.050791-8.605753 23.007392-9.569394 35.251622-.963641 12.244229.37171 24.561369 3.937014 36.314598 3.565303 11.753228 9.298037 22.736436 16.901805 32.38177 7.603769 9.645334 16.945231 17.78365 27.541414 23.994179 10.596183 6.21053 22.261268 10.384364 34.392146 12.305706s24.514819 1.556499 36.511547-1.075666c11.996727-2.632165 23.395864-7.485494 33.608049-14.309058 10.212185-6.823565 19.058336-15.497705 26.081088-25.573951 7.022752-10.076245 12.098951-21.377895 14.966148-33.320632 2.867197-11.942736 3.475112-24.317126 1.792314-36.483389s-5.626799-23.911047-11.62809-34.627123c-6.001291-10.716075-13.954631-20.215522-23.448816-28.007198s-20.362722-13.738945-32.043684-17.53432l-1.52163 4.683094c11.096915 3.605607 21.422025 9.255512 30.441501 16.657604 9.019475 7.402093 16.575148 16.426567 22.276374 26.606838 5.701226 10.180272 9.448027 21.337817 11.046686 32.895767 1.598658 11.55795 1.021139 23.313621-1.702698 34.65922s-7.546227 22.082167-14.217841 31.6546-15.075457 17.812867-24.777034 24.295253c-9.701576 6.482387-20.530755 11.093049-31.927646 13.593605-11.396891 2.500557-23.161635 2.847158-34.68597 1.021883-11.524334-1.825275-22.606165-5.790417-32.672538-11.69042-10.066374-5.900003-18.940763-13.631403-26.164343-22.79447-7.223581-9.163067-12.669677-19.597116-16.056716-30.762682-3.387038-11.165567-4.655622-22.86685-3.740163-34.498868.915459-11.632019 3.998908-22.99079 9.090924-33.489041 5.092017-10.498251 12.103307-19.951882 20.671371-27.872121 8.568065-7.920238 18.542653-14.168193 29.408056-18.42083 10.865403-4.252638 22.431083-6.435383 34.099069-6.435384z"/></g></g></svg>