<svg height="288pt" stroke-linejoin="round" viewBox="0 0 432 288" width="432pt" xmlns="http://www.w3.org/2000/svg"><g stroke-linejoin="round"><path d="m0 288h432v-288h-432z" fill="none"/><g><path d="m257.689768 51.363866c-5.761261-2.281044-11.724843-4.013625-17.811481-5.174713s-12.269242-1.745517-18.465635-1.745517v98.545768z"/><path d="m221.412649 44.443636c-12.159952.000001-24.215534 2.250698-35.556379 6.63814-11.340846 4.387443-21.772276 10.836315-30.766155 19.020116-8.993878 8.1838-16.395814 17.962043-21.831053 28.839663-5.435238 10.87762-8.810477 22.66789-9.954829 34.773875-1.144352 12.105986-.038174 24.319874 3.262529 36.023284 3.300703 11.703409 8.739271 22.695437 16.040352 32.419564s16.339344 18.013427 26.657188 24.448218 21.73815 10.904613 33.682716 13.18316c11.944566 2.278548 24.208349 2.326708 36.170442.142041 11.962092-2.184666 23.417152-6.564656 33.785215-12.918214 10.368064-6.353557 19.471151-14.571616 26.848379-24.238101 7.377228-9.666486 12.901959-20.615461 16.294477-32.292586s4.594588-23.881949 3.54535-35.996549-4.331773-23.931015-9.681413-34.850987c-5.349639-10.919972-12.67455-20.756048-21.603876-29.010232-8.929327-8.254184-19.309787-14.784785-30.615824-19.261162l-1.813856 4.581277c10.740736 4.252558 20.602173 10.456629 29.085033 18.298104s15.441525 17.185747 20.523683 27.55972c5.082157 10.373974 8.200565 21.599568 9.197342 33.108438.996776 11.50887-.145191 23.103453-3.368083 34.196721-3.222893 11.093269-8.471386 21.494796-15.479753 30.677957s-15.6563 16.990317-25.50596 23.026197c-9.84966 6.035879-20.731967 10.19687-32.095955 12.272303s-23.014582 2.029681-34.36192-.134939c-11.347337-2.164621-22.196628-6.410951-31.998579-12.524003-9.801952-6.113051-18.388302-13.987886-25.324329-23.225807-6.936027-9.23792-12.102667-19.680347-15.238335-30.798586s-4.186537-22.721433-3.099402-34.222119 4.293611-22.701443 9.457088-33.035182c5.163476-10.333739 12.195315-19.62307 20.7395-27.39768 8.544184-7.77461 18.454043-13.901039 29.227847-18.069109 10.773803-4.168071 22.226606-6.306233 33.778561-6.306233z"/></g></g></svg>