<svg height="288pt" stroke-linejoin="round" viewBox="0 0 432 288" width="432pt" xmlns="http://www.w3.org/2000/svg"><g stroke-linejoin="round"><path d="m0 288h432v-288h-432z" fill="none"/><g fill="#fff"><path d="m263.51343 53.816735c-6.53881-3.076931-13.396468-5.424832-20.449014-7.001263s-14.257229-2.371835-21.483814-2.371835v98.484893z"/><path d="m221.580606 44.443637c-12.022443-.000001-23.943897 2.20144-35.173445 6.495202s-21.578533 10.60771-30.53398 18.628877c-8.955446 8.021166-16.366903 17.614795-21.867003 28.305354-5.500099 10.690559-8.996439 22.298445-10.315714 34.248284-1.319275 11.94984-.439321 24.040873 2.596244 35.673779 3.035565 11.632905 8.175744 22.612248 15.165751 32.39381 6.990007 9.781561 15.712408 18.20101 25.734857 24.841016 10.022449 6.640005 21.176566 11.389013 32.90947 14.011628s23.84748 3.074777 35.743239 1.334072c11.89576-1.740705 23.372852-5.645031 33.862386-11.519452s19.815284-13.620246 27.514996-22.853532c7.699713-9.233286 13.644031-19.798914 17.53831-31.173172 3.894279-11.374257 5.673094-23.366056 5.248274-35.380991-.424819-12.014935-3.046137-23.851155-7.73402-34.921968-4.687884-11.070813-11.363576-21.190227-19.69618-29.856649-8.332603-8.666421-18.182129-15.734253-29.060361-20.85316l-2.096641 4.455589c10.33432 4.862962 19.69137 11.577403 27.607343 19.810503 7.915973 8.233101 14.257881 17.846544 18.71137 28.363816s6.943741 21.761681 7.34732 33.17587c.403579 11.414188-1.286296 22.806397-4.985861 33.611942-3.699565 10.805544-9.346667 20.842891-16.661394 29.614513s-16.174189 16.130155-26.139247 21.710855c-9.965057 5.5807-20.868294 9.28981-32.169266 10.94348-11.300971 1.653669-22.809819 1.224116-33.956077-1.267369-11.146259-2.491484-21.742671-7.003042-31.263997-13.311047s-17.807607-14.306481-24.448114-23.598965c-6.640506-9.292484-11.523676-19.722859-14.407463-30.774119-2.883787-11.051261-3.719743-22.537743-2.466432-33.89009s4.574834-22.379839 9.799928-32.53587c5.225095-10.156031 12.265979-19.269978 20.773654-26.890087 8.507674-7.620108 18.339209-13.618358 29.00728-17.697432 10.66807-4.079074 21.993452-6.170443 33.414773-6.170442z"/></g></g></svg>