<svg height="288pt" stroke-linejoin="round" viewBox="0 0 432 288" width="432pt" xmlns="http://www.w3.org/2000/svg"><g stroke-linejoin="round"><path d="m0 288h432v-288h-432z" fill="none"/><g><path d="m269.113337 56.625109c-7.239334-3.979857-14.950765-7.033028-22.952412-9.087502s-16.230103-3.09397-24.49129-3.09397v98.481248z"/><path d="m221.669644 44.443637c-11.892029-.000001-23.686317 2.154018-34.810645 6.35755s-21.395833 10.38748-30.316176 18.251819-16.342891 17.279795-21.907527 27.789561c-5.564635 10.509766-9.179887 21.941082-10.670354 33.739338-1.490467 11.798257-.83165 23.769514 1.944489 35.332965 2.776138 11.563451 7.623963 22.529017 14.308274 32.364683s15.095232 18.379755 24.824691 25.217734c9.72946 6.83798 20.617526 11.857447 32.135945 14.814875 11.518418 2.957428 23.47785 3.804202 35.298062 2.499238 11.820213-1.304963 23.306905-4.740212 33.90278-10.13908 10.595876-5.398867 20.126759-12.672607 28.130243-21.468321 8.003485-8.795715 14.348009-18.968819 18.725757-30.025747 4.377748-11.056929 6.716758-22.815928 6.90355-34.70649s-1.781705-23.717228-5.809986-34.90621c-4.028281-11.188981-10.050129-21.556352-17.773384-30.599121-7.723255-9.04277-17.020962-16.612293-27.442026-22.341322l-2.372185 4.314989c9.900011 5.442577 18.732832 12.633624 26.069924 21.224255 7.337093 8.590632 13.057848 18.439634 16.884715 29.069166s5.69694 21.864866 5.519487 33.160899c-.177452 11.296034-2.399512 22.467083-6.558373 32.971165-4.15886 10.504083-10.186158 20.168532-17.789468 28.52446s-16.657649 15.265981-26.723731 20.394906c-10.066082 5.128924-20.978439 8.392411-32.207641 9.632126s-22.590662.43528-33.53316-2.374277c-10.942498-2.809556-21.28616-7.57805-30.529147-14.074131-9.242986-6.49608-17.233361-14.612964-23.583456-23.956847-6.350096-9.343884-10.95553-19.761171-13.592861-30.746449-2.637332-10.985279-3.263208-22.357973-1.847264-33.566317 1.415944-11.208343 4.850433-22.068094 10.136836-32.052371 5.286404-9.984278 12.337825-18.928961 20.812151-26.400083s18.232256-13.345873 28.800367-17.339228c10.568111-3.993356 21.772685-6.039673 33.070113-6.039672z"/></g></g></svg>