<svg height="288pt" stroke-linejoin="round" viewBox="0 0 432 288" width="432pt" xmlns="http://www.w3.org/2000/svg"><g stroke-linejoin="round"><path d="m0 288h432v-288h-432z" fill="none"/><g fill="#fff"><path d="m274.25239 59.782757c-7.854045-4.984329-16.374482-8.831454-25.307255-11.426664-8.932773-2.595211-18.188209-3.912454-27.490335-3.912454v98.534804z"/><path d="m221.454818 44.443639c-11.768478-.000003-23.442338 2.108343-34.467343 6.224939s-21.223871 10.175247-30.11239 17.888309c-8.88852 7.713061-16.323763 16.956506-21.952731 27.291486s-9.361145 21.595308-11.01934 33.24638c-1.658194 11.651072-1.215743 23.505538 1.306348 35.000587s7.083267 22.445839 13.466977 32.332463c6.383711 9.886624 14.487305 18.550104 23.926052 25.579126s20.060869 12.310559 31.362065 15.593861c11.301195 3.283302 23.099739 4.515574 34.835475 3.63831s23.219953-3.849956 33.907417-8.776944c10.687464-4.926987 20.40632-11.729043 28.695149-20.083228s15.014345-18.126163 19.857244-28.851993c4.842898-10.725829 7.725305-22.233039 8.510372-33.975302.785067-11.742264-.539829-23.530766-3.911786-34.805827-3.371958-11.27506-8.736756-21.855376-15.839691-31.238627-7.102935-9.383252-15.829791-17.418555-25.766246-23.724422l-2.639879 4.159784c9.439632 5.990574 17.730145 13.624112 24.477934 22.538201 6.747788 8.914089 11.844346 18.965388 15.047705 29.676696 3.20336 10.711308 4.462011 21.910385 3.716197 33.065535-.745813 11.155151-3.4841 22.087-8.084853 32.276538-4.600754 10.189538-10.989995 19.472917-18.864382 27.409393-7.874388 7.936476-17.107301 14.398429-27.260392 19.079067-10.153091 4.680637-21.063096 7.504695-32.212045 8.338096-11.14895.833401-22.357566-.337257-33.093702-3.456394s-20.827152-8.136597-29.793962-14.814168c-8.966809-6.677571-16.665224-14.907877-22.729749-24.30017s-10.397642-19.795543-12.793628-30.71584c-2.395987-10.920296-2.816315-22.182039-1.24103-33.250557 1.575285-11.068519 5.120853-21.76583 10.468372-31.584061s12.411001-18.599504 20.855094-25.926913c8.444094-7.327408 18.133017-13.083127 28.606771-16.993893 10.473755-3.910766 21.563922-5.913694 32.743976-5.913692z"/></g></g></svg>