<?xml version="1.0" encoding="utf-8" standalone="no"?>
<!DOCTYPE svg PUBLIC "-//W3C//DTD SVG 1.1//EN"
  "http://www.w3.org/Graphics/SVG/1.1/DTD/svg11.dtd">
<!-- Created with matplotlib (http://matplotlib.org/) -->
<svg height="288pt" version="1.1" viewBox="0 0 432 288" width="432pt" xmlns="http://www.w3.org/2000/svg" xmlns:xlink="http://www.w3.org/1999/xlink">
 <defs>
  <style type="text/css">
*{stroke-linecap:butt;stroke-linejoin:round;}
  </style>
 </defs>
 <g id="figure_1">
  <g id="patch_1">
   <path d="M 0 288 
L 432 288 
L 432 0 
L 0 0 
z
" style="fill:none;"/>
  </g>
  <g id="axes_1">
   <g id="patch_2">
    <path d="M 279.343715 63.283283 
C 270.969301 57.198916 261.689146 52.470441 251.844433 49.271699 
C 241.999719 46.072958 231.712588 44.443636 221.361244 44.443636 
L 221.361244 143.089307 
L 279.343715 63.283283 
z
"/>
   </g>
   <g id="patch_3">
    <path d="M 221.36123 44.443636 
C 209.709652 44.443638 198.149691 46.507987 187.218283 50.540798 
C 176.286874 54.573609 166.155925 60.511463 157.295997 68.078558 
C 148.436068 75.645654 140.986492 84.722991 135.293285 94.888946 
C 129.600078 105.054902 125.752771 116.149606 123.930064 127.657734 
C 122.107357 139.165862 122.337913 150.906435 124.611024 162.334131 
C 126.884135 173.761827 131.164054 184.696932 137.251988 194.631535 
C 143.339921 204.566137 151.14013 213.344005 160.290312 220.557426 
C 169.440494 227.770847 179.796752 233.306381 190.878061 236.906916 
C 201.959371 240.507451 213.591465 242.116364 225.23406 241.658924 
C 236.876655 241.201485 248.346658 238.684887 259.111312 234.22602 
C 269.875966 229.767154 279.765985 223.43614 288.322001 215.52704 
C 296.878016 207.61794 303.965475 198.255133 309.255181 187.873501 
C 314.544886 177.491869 317.953651 166.254674 319.323147 154.68386 
C 320.692643 143.113046 320.001333 131.390575 317.281326 120.060931 
C 314.561319 108.731287 309.855391 97.972641 303.382121 88.284709 
C 296.908851 78.596776 288.770039 70.131909 279.343715 63.283283 
L 276.444591 67.273585 
C 285.399599 73.779779 293.131471 81.821402 299.281077 91.024938 
C 305.430683 100.228475 309.901315 110.449188 312.485322 121.21235 
C 315.069328 131.975512 315.726073 143.111859 314.425052 154.104132 
C 313.124031 165.096406 309.885704 175.771741 304.860484 185.634291 
C 299.835264 195.496842 293.102178 204.391508 284.973963 211.905153 
C 276.845748 219.418798 267.45023 225.433262 257.223808 229.669185 
C 246.997387 233.905108 236.100884 236.295876 225.040419 236.730443 
C 213.979954 237.165011 202.929464 235.636544 192.40222 232.216035 
C 181.874977 228.795527 172.036531 223.53677 163.343859 216.68402 
C 154.651186 209.83127 147.240987 201.492296 141.45745 192.054423 
C 135.673914 182.616551 131.607991 172.228201 129.448535 161.37189 
C 127.28908 150.515579 127.070051 139.362034 128.801623 128.429313 
C 130.533195 117.496591 134.188136 106.956622 139.596683 97.298964 
C 145.00523 87.641306 152.082327 79.017836 160.499259 71.829096 
C 168.916191 64.640355 178.540592 58.999394 188.925431 55.168223 
C 199.310269 51.337053 210.292232 49.375921 221.361231 49.37592 
z
"/>
   </g>
   <g id="matplotlib.axis_1"/>
   <g id="matplotlib.axis_2"/>
  </g>
 </g>
</svg>
