<svg height="288pt" stroke-linejoin="round" viewBox="0 0 432 288" width="432pt" xmlns="http://www.w3.org/2000/svg"><g stroke-linejoin="round"><path d="m0 288h432v-288h-432z" fill="none"/><g><path d="m279.343715 63.283283c-8.374414-6.084367-17.654569-10.812842-27.499282-14.011584-9.844714-3.198741-20.131845-4.828063-30.483189-4.828063v98.645671z"/><path d="m221.36123 44.443636c-11.651578.000002-23.211539 2.064351-34.142947 6.097162-10.931409 4.032811-21.062358 9.970665-29.922286 17.53776-8.859929 7.567096-16.309505 16.644433-22.002712 26.810388-5.693207 10.165956-9.540514 21.26066-11.363221 32.768788s-1.592151 23.248701.68096 34.676397 6.55303 22.362801 12.640964 32.297404c6.087933 9.934602 13.888142 18.71247 23.038324 25.925891s19.50644 12.748955 30.587749 16.34949c11.08131 3.600535 22.713404 5.209448 34.355999 4.752008 11.642595-.457439 23.112598-2.974037 33.877252-7.432904 10.764654-4.458866 20.654673-10.78988 29.210689-18.69898 8.556015-7.9091 15.643474-17.271907 20.93318-27.653539 5.289705-10.381632 8.69847-21.618827 10.067966-33.189641s.678186-23.293285-2.041821-34.622929-7.425935-22.08829-13.899205-31.776222c-6.47327-9.687933-14.612082-18.1528-24.038406-25.001426l-2.899124 3.990302c8.955008 6.506194 16.68688 14.547817 22.836486 23.751353 6.149606 9.203537 10.620238 19.42425 13.204245 30.187412 2.584006 10.763162 3.240751 21.899509 1.93973 32.891782-1.301021 10.992274-4.539348 21.667609-9.564568 31.530159-5.02522 9.862551-11.758306 18.757217-19.886521 26.270862s-17.523733 13.528109-27.750155 17.764032c-10.226421 4.235923-21.122924 6.626691-32.183389 7.061258-11.060465.434568-22.110955-1.093899-32.638199-4.514408-10.527243-3.420508-20.365689-8.679265-29.058361-15.532015-8.692673-6.85275-16.102872-15.191724-21.886409-24.629597-5.783536-9.437872-9.849459-19.826222-12.008915-30.682533-2.159455-10.856311-2.378484-22.009856-.646912-32.942577 1.731572-10.932722 5.386513-21.472691 10.79506-31.130349s12.485644-18.281128 20.902576-25.469868c8.416932-7.188741 18.041333-12.829702 28.426172-16.660873 10.384838-3.83117 21.366801-5.792302 32.4358-5.792303z"/></g></g></svg>