<svg height="288pt" stroke-linejoin="round" viewBox="0 0 432 288" width="432pt" xmlns="http://www.w3.org/2000/svg"><g stroke-linejoin="round"><path d="m0 288h432v-288h-432z" fill="none"/><g><path d="m284.375816 67.12016c-8.79218-7.273524-18.778179-12.969437-29.51439-16.834711-10.736212-3.865274-22.061268-5.841813-33.472077-5.841813v98.814084z"/><path d="m221.38934 44.443636c-11.541129.000001-22.993529 2.021946-33.836919 5.973977s-20.91104 9.773382-29.74558 17.19959-16.300128 16.343086-22.057603 26.345542-9.718311 20.936692-11.702566 32.305965c-1.984255 11.369274-1.961419 22.998771.067469 34.360164 2.028888 11.361394 6.032633 22.27999 11.829345 32.259759 5.796711 9.979769 13.297259 18.86726 22.160895 26.258716 8.863635 7.391457 18.954069 13.173226 29.812895 17.082643 10.858826 3.909418 22.319078 5.886372 33.860118 5.841049 11.54104-.045322 22.985411-2.112224 33.813198-6.106805 10.827787-3.994582 20.8725-9.855423 29.677809-17.316267 8.80531-7.460843 16.235824-16.406969 21.953976-26.431957 5.718152-10.024989 9.636019-20.974693 11.575612-32.351672 1.939594-11.376978 1.87109-23.006295-.202398-34.359634s-6.120078-22.256128-11.955935-32.213057c-5.835857-9.956928-13.371248-18.814897-22.26384-26.171489l-3.149324 3.806878c8.447963 6.988762 15.606584 15.403833 21.150649 24.862915 5.544064 9.459082 9.388325 19.816732 11.358138 30.602404 1.969814 10.785672 2.034892 21.833523.192278 32.641652-1.842614 10.80813-5.564587 21.210349-10.996831 30.734088-5.432245 9.523739-12.491233 18.022559-20.856277 25.11036s-17.907522 12.6556-28.193919 16.450453c-10.286398 3.794853-21.15855 5.758409-32.122538 5.801465s-21.851227-1.83505-32.167112-5.548996c-10.315885-3.713947-19.901798-9.206628-28.322251-16.228511-8.420454-7.021883-15.545974-15.465-21.05285-24.94578-5.506876-9.480781-9.310434-19.853447-11.237878-30.646771s-1.949137-21.841346-.064095-32.642156c1.885043-10.80081 5.647836-21.188334 11.117438-30.690667 5.469601-9.502334 12.56191-17.973368 20.954722-25.028265 8.392813-7.054898 17.957081-12.585181 28.258302-16.339611 10.30122-3.754429 21.181-5.675276 32.145072-5.675277z"/></g></g></svg>