<svg height="288pt" stroke-linejoin="round" viewBox="0 0 432 288" width="432pt" xmlns="http://www.w3.org/2000/svg"><g stroke-linejoin="round"><path d="m0 288h432v-288h-432z" fill="none"/><g><path d="m288.911105 71.189483c-9.066412-8.513927-19.661206-15.237588-31.225128-19.816068-11.563921-4.578481-23.889856-6.929779-36.32717-6.929779v98.68174z"/><path d="m221.358802 44.443636c-11.395526.000001-22.705415 1.973893-33.427246 5.83399-10.721832 3.860098-20.694456 9.548383-29.47486 16.812165-8.780404 7.263783-16.236617 15.993887-22.037412 25.802496-5.800794 9.808609-9.858984 20.548298-11.994292 31.741979-2.135309 11.19368-2.315642 22.67311-.532988 33.928339 1.782654 11.255228 5.5015 22.117088 10.991337 32.103064s12.668152 18.945977 21.216063 26.481974 18.336942 13.534722 28.932235 17.729695 21.837599 6.523142 33.227503 6.881084c11.389903.357942 22.756212-1.259724 33.594002-4.781136 10.83779-3.521411 20.984167-8.893642 29.988399-15.878041 9.004233-6.984399 16.730985-15.475989 22.837014-25.097551 6.106028-9.621562 10.499557-20.22848 12.985414-31.349566 2.485857-11.121085 3.026679-22.589186 1.59844-33.894856-1.428238-11.305669-4.80407-22.278981-9.977531-32.43247s-12.066794-19.334545-20.373775-27.135319l-3.377615 3.596794c7.891632 7.410736 14.440298 16.132739 19.355086 25.778554 4.914788 9.645814 8.121828 20.07046 9.478655 30.810846 1.356826 10.740387.843046 21.635082-1.518518 32.200114-2.361564 10.565031-6.535417 20.641603-12.336144 29.782087s-13.141142 17.207495-21.695163 23.842674c-8.55402 6.635179-18.193078 11.738798-28.488979 15.084139-10.2959 3.345341-21.093894 4.882123-31.914302 4.542079-10.820409-.340045-21.5006-2.551806-31.566128-6.53703s-19.365107-9.684013-27.485623-16.84321c-8.120515-7.159197-14.939914-15.671198-20.15526-25.157875-5.215345-9.486677-8.748249-19.805444-10.44177-30.497912-1.693521-10.692467-1.522205-21.597925.506338-32.231922s5.883824-20.836701 11.394579-30.15488c5.510754-9.318178 12.594156-17.611777 20.93554-24.51237 8.341384-6.900594 17.815377-12.304464 28.001117-15.971557s20.930134-5.54229 31.755885-5.542291z"/></g></g></svg>