<svg height="288pt" stroke-linejoin="round" viewBox="0 0 432 288" width="432pt" xmlns="http://www.w3.org/2000/svg"><g stroke-linejoin="round"><path d="m0 288h432v-288h-432z" fill="none"/><g><path d="m293.286822 75.538084c-9.217743-9.815899-20.349851-17.639675-32.707841-22.987454-12.357989-5.34778-25.681729-8.106994-39.147191-8.106994v98.570818z"/><path d="m221.43179 44.443636c-11.252741 0-22.42284 1.926902-33.025215 5.697026-10.602374 3.770124-20.481294 9.328093-29.207746 16.432543-8.726453 7.104449-16.172263 15.651027-22.014081 25.268581s-9.993838 20.164819-12.275751 31.18376c-2.281913 11.01894-2.660201 22.347708-1.118437 33.494328 1.541765 11.14662 4.980936 21.947369 10.168161 31.933203 5.187226 9.985833 12.046314 19.010077 20.279396 26.680837 8.233081 7.670759 17.719227 13.875363 28.046482 18.344365s21.343931 7.136761 32.571606 7.887423 22.501435-.426799 33.331694-3.481248c10.83026-3.054449 21.057941-7.941023 30.238888-14.447512s17.180307-14.537324 23.650692-23.743751 11.316756-19.45322 14.328651-30.295391 4.145074-22.120467 3.350327-33.345108c-.794748-11.224641-3.505748-22.230755-8.015271-32.54038-4.509524-10.309626-10.751332-19.771333-18.454364-27.974228l-3.592751 3.373819c7.31788 7.79275 13.247598 16.781371 17.531645 26.575516 4.284047 9.794144 6.859497 20.249953 7.614507 30.913361.755011 10.663409-.32151 21.377791-3.18281 31.677853s-7.465353 20.034515-13.612219 28.780621-13.746257 16.375399-22.468157 22.556564c-8.721899 6.181164-18.438197 10.823409-28.726943 13.725136-10.288747 2.901727-20.998818 4.020314-31.66511 3.307185-10.666291-.713128-21.132133-3.247499-30.943025-7.493051-9.810893-4.245552-18.822731-10.139926-26.644159-17.427147-7.821427-7.287222-14.337561-15.860254-19.265425-25.346796s-8.195077-19.747253-9.659753-30.336542c-1.464677-10.589289-1.105303-21.351618 1.062514-31.819612 2.167818-10.467994 6.112237-20.487896 11.661964-29.624572s12.623246-17.255925 20.913377-24.005152c8.29013-6.749227 17.675103-12.029298 27.747359-15.610915 10.072256-3.581618 20.68385-5.412175 31.373954-5.412175z"/></g></g></svg>