<svg height="288pt" stroke-linejoin="round" viewBox="0 0 432 288" width="432pt" xmlns="http://www.w3.org/2000/svg"><g stroke-linejoin="round"><path d="m0 288h432v-288h-432z" fill="none"/><g fill="#fff"><path d="m297.546514 80.166922c-9.244354-11.174504-20.842959-20.171304-33.965372-26.346243-13.122414-6.174939-27.447797-9.377042-41.950473-9.377042v98.526333z"/><path d="m221.630679 44.443637c-11.117766-.000001-22.155761 1.881801-32.645508 5.565537-10.489748 3.683736-20.280718 9.116544-28.957361 16.067845s-16.114447 15.321341-21.997736 24.754878c-5.883289 9.433538-10.127636 19.795199-12.552903 30.645213-2.425266 10.850014-2.996648 22.032679-1.689895 33.073382 1.306752 11.040703 4.472887 21.781005 9.364027 31.765066 4.89114 9.98406 11.437096 19.068605 19.360044 26.868068s17.109191 14.201918 27.168846 18.935633 20.848363 7.730759 31.908229 8.863932 22.232178.386212 33.042759-2.209178c10.810582-2.595391 21.104297-7.001967 30.444261-13.032704 9.339964-6.030738 17.592144-13.599094 24.406301-22.383853 6.814158-8.784758 12.092507-18.659854 15.611024-29.206169s5.22671-21.612505 5.05208-32.7289c-.17463-11.116394-2.229577-22.123469-6.077626-32.55406-3.848048-10.430592-9.433977-20.135019-16.520707-28.701405l-3.795793 3.140153c6.732395 8.138066 12.039027 17.357272 15.694673 27.266334s5.607845 20.365782 5.773744 30.926357-1.456885 21.073456-4.799476 31.092455-8.357023 19.40034-14.830472 27.745861c-6.47345 8.34552-14.313021 15.535459-23.185987 21.26466-8.872965 5.7292-18.651995 9.915448-28.922047 12.381069-10.270053 2.465621-20.883748 3.175233-31.390621 2.098719s-20.756146-3.923706-30.312818-8.420735c-9.556673-4.49703-18.283603-10.579362-25.810404-17.988852-7.5268-7.409489-13.745458-16.039807-18.392042-25.524665-4.646583-9.484857-7.654411-19.688144-8.895826-30.176812s-.698602-21.1122 1.605401-31.419713c2.304003-10.307514 6.336133-20.151091 11.925257-29.112952 5.589125-8.961861 12.655039-16.913399 20.89785-23.517134 8.242811-6.603736 17.544232-11.764904 27.509492-15.264453 9.965261-3.49955 20.451355-5.287261 31.013233-5.28726z"/></g></g></svg>