<svg height="288pt" stroke-linejoin="round" viewBox="0 0 432 288" width="432pt" xmlns="http://www.w3.org/2000/svg"><g stroke-linejoin="round"><path d="m0 288h432v-288h-432z" fill="none"/><g fill="#fff"><path d="m301.250727 85.06664c-9.140745-12.581157-21.131013-22.821814-34.987203-29.881896-13.856189-7.060081-29.188758-10.741106-44.739923-10.741106v98.548145z"/><path d="m221.52362 44.443638c-10.990324-.000002-21.903624 1.838497-32.287349 5.439256-10.383724 3.60076-20.092329 8.913311-28.723217 15.717352s-16.063084 15.004204-21.98839 24.260442c-5.925306 9.256239-10.26067 19.438814-12.826311 30.125473-2.565642 10.68666-3.3256 21.727614-2.248362 32.665016 1.077239 10.937402 3.976575 21.617947 8.57778 31.598735 4.601204 9.980787 10.839784 19.121921 18.457037 27.044336s16.506413 14.515067 26.298862 19.50457c9.792449 4.989504 20.350932 8.305924 31.237609 9.811735s21.948955 1.179907 32.728102-.964198c10.779148-2.144105 21.124079-6.076357 30.605809-11.633694 9.48173-5.557338 17.967359-12.661865 25.105004-21.018972 7.137644-8.357107 12.82726-17.849655 16.832909-28.084008s6.271187-21.06706 6.702666-32.04891c.431478-10.98185-.97715-21.958916-4.167472-32.476-3.190322-10.517083-8.11762-20.426773-14.57757-29.318131l-3.986356 2.896257c6.136952 8.446791 10.817886 17.860995 13.848691 27.852225 3.030806 9.991229 4.369003 20.419442 3.959098 30.852199-.409904 10.432758-2.562165 20.72383-6.367532 30.446465s-9.210502 18.740556-15.991264 26.679808c-6.780762 7.939251-14.84211 14.688552-23.849753 19.968023-9.007644 5.27947-18.835329 9.01511-29.075519 11.052009-10.24019 2.0369-20.749354 2.346509-31.091697.915988-10.342343-1.43052-20.372902-4.581119-29.675729-9.321148-9.302826-4.740028-17.747528-11.003047-24.983918-18.529341-7.236391-7.526294-13.163042-16.210371-17.534186-25.69212-4.371144-9.481748-7.125514-19.628266-8.14889-30.018798-1.023377-10.390532-.301416-20.879438 2.135943-31.031765 2.43736-10.152326 6.555955-19.825772 12.184996-28.619199 5.62904-8.793426 12.689627-16.583581 20.88897-23.04742 8.199344-6.463839 17.422519-11.510762 27.287057-14.931484s20.232174-5.167295 30.672981-5.167293z"/></g></g></svg>