<svg height="288pt" stroke-linejoin="round" viewBox="0 0 432 288" width="432pt" xmlns="http://www.w3.org/2000/svg"><g stroke-linejoin="round"><path d="m0 288h432v-288h-432z" fill="none"/><g><path d="m304.626978 90.20806c-8.897911-14.020863-21.195536-25.569101-35.747437-33.569076s-30.891798-12.195348-47.497743-12.195348v98.593425z"/><path d="m221.381779 44.443636c-10.865429.000002-21.656502 1.796132-31.936125 5.315635-10.279623 3.519504-19.907102 8.714212-28.492474 15.373711-8.585373 6.6595-16.011133 14.692645-21.976501 23.774052-5.965367 9.081406-10.388695 19.086781-13.090815 29.610853-2.702121 10.524072-3.646052 21.422804-2.793559 32.254738s3.489743 21.44882 7.804926 31.420618c4.315184 9.971797 10.249241 19.162026 17.561812 27.198434 7.312571 8.036409 15.903571 14.809006 25.425019 20.043465 9.521449 5.234459 19.84303 8.85914 30.546666 10.727222 10.703636 1.868083 21.64283 1.954 32.374488.254271 10.731657-1.699728 21.108899-5.161839 30.711391-10.246098s18.298811-11.72108 25.736708-19.641638c7.437898-7.920557 13.515575-17.016445 17.986855-26.919233s7.274965-20.476941 8.297491-31.294149c1.022527-10.817208.249901-21.729421-2.286584-32.294637-2.536484-10.565217-6.802111-20.638835-12.624099-29.81282l-4.162259 2.64145c5.530889 8.715286 9.583234 18.285223 11.992894 28.322179 2.40966 10.036955 3.143656 20.403558 2.172255 30.679906-.9714 10.276347-3.634901 20.321792-7.882617 29.72944-4.247715 9.407649-10.021509 18.048743-17.087512 25.573273-7.066002 7.524529-15.327505 13.829509-24.449873 18.659555-9.122367 4.830046-18.980747 8.119051-29.175821 9.733793-10.195075 1.614742-20.587309 1.533121-30.755763-.241557s-19.973957-5.218125-29.019333-10.190861-17.206826-11.406703-24.153768-19.041291-12.584297-16.365306-16.683721-25.838513c-4.099425-9.473208-6.604812-19.559249-7.41468-29.849587-.809869-10.290338.086865-20.644133 2.65388-30.642001 2.567015-9.997869 6.769177-19.502974 12.436275-28.130311 5.667099-8.627336 12.721572-16.258824 20.877675-22.585349 8.156104-6.326524 17.302209-11.261497 27.067851-14.605025 9.765642-3.343529 20.017162-5.049851 30.339319-5.049853z"/></g></g></svg>