<svg height="288pt" stroke-linejoin="round" viewBox="0 0 432 288" width="432pt" xmlns="http://www.w3.org/2000/svg"><g stroke-linejoin="round"><path d="m0 288h432v-288h-432z" fill="none"/><g><path d="m307.737984 95.515408c-8.50166-15.464463-21.003208-28.36506-36.192996-37.348276-15.189788-8.983215-32.517334-13.723496-50.164652-13.723496v98.54729z"/><path d="m221.380326 44.443636c-10.730483.000001-21.389283 1.752612-31.554807 5.18851s-19.701954 8.509178-28.232091 15.019173c-8.530137 6.509996-15.940012 14.36973-21.936539 23.268321-5.996528 8.898592-10.49959 18.717151-13.331074 29.067318-2.831485 10.350168-3.953562 21.093659-3.321849 31.805532s3.008775 21.249009 7.037166 31.194628c4.028392 9.945619 9.654289 19.166841 16.65517 27.298935 7.00088 8.132093 15.283207 15.066409 24.519385 20.528669 9.236179 5.46226 19.302807 9.379485 29.801715 11.596737 10.498908 2.217251 21.289824 2.704905 31.945928 1.443671 10.656105-1.261233 21.035026-4.254502 30.726241-8.861413 9.691215-4.60691 18.565243-10.765911 26.271086-18.233392 7.705842-7.467481 14.140543-16.143671 19.049589-25.685398 4.909045-9.541727 8.226847-19.821506 9.822174-30.432736s1.446865-21.412139-.439514-31.975512-5.485472-20.748077-10.654922-30.151271l-4.317882 2.373776c4.910977 8.933035 8.330115 18.608503 10.122175 28.643708 1.79206 10.035204 1.933099 20.296067.417539 30.376736-1.515561 10.080668-4.667473 19.846459-9.331066 28.911099s-10.776559 17.307021-18.097109 24.401128c-7.320551 7.094107-15.750877 12.945158-24.957532 17.321723-9.206654 4.376565-19.066629 7.22017-29.189928 8.418342-10.1233 1.198172-20.374669.734901-30.348632-1.371488s-19.53726-5.827753-28.311629-11.0169c-8.77437-5.189147-16.64258-11.776747-23.293417-19.502236-6.650836-7.725489-11.995439-16.48565-15.82241-25.933988-3.826972-9.448338-6.085181-19.458617-6.685309-29.634896-.600127-10.176279.465846-20.382596 3.155757-30.215255 2.68991-9.832659 6.967819-19.16029 12.66452-27.613952 5.696701-8.453663 12.736083-15.92041 20.839712-22.104905 8.10363-6.184496 17.163239-11.004112 26.820487-14.268215s19.783108-4.929083 29.977067-4.929084z"/></g></g></svg>