<svg height="288pt" stroke-linejoin="round" viewBox="0 0 432 288" width="432pt" xmlns="http://www.w3.org/2000/svg"><g stroke-linejoin="round"><path d="m0 288h432v-288h-432z" fill="none"/><g><path d="m310.479544 101.045915c-7.963489-16.923278-20.581473-31.235573-36.373216-41.257318-15.791742-10.021745-34.11437-15.344961-52.817698-15.344961v98.572333z"/><path d="m221.28863 44.443636c-10.603337 0-21.137546 1.710887-31.195873 5.066599s-19.509624 8.312494-27.988949 14.678951c-8.479326 6.366458-15.87612 14.05958-21.904773 22.782314-6.028652 8.722734-10.610557 18.361347-13.568794 28.543664-2.958236 10.182317-4.254233 20.775573-3.837948 31.370735s2.539423 21.05408 6.287436 30.972908c3.748012 9.918828 9.072029 19.168236 15.766475 27.391078s14.672034 15.311904 23.624727 20.993455c8.952693 5.681552 18.763759 9.881515 29.054365 12.437715 10.290607 2.5562 20.926577 3.435309 31.497227 2.603381s20.938151-3.364045 30.702185-7.498579c9.764035-4.134534 18.797292-9.817576 26.750972-16.829688s14.724078-15.261865 20.049768-24.430712c5.325691-9.168847 9.137235-19.137239 11.287457-29.520268s2.611087-21.045313 1.364799-31.575152c-1.246288-10.529838-4.183479-20.789936-8.69816-30.384122l-4.459545 2.098503c4.288946 9.114476 7.079278 18.861569 8.263251 28.864916 1.183974 10.003347.746153 20.132517-1.296559 29.996394-2.042711 9.863878-5.663677 19.33385-10.723084 28.044255-5.059406 8.710404-11.491283 16.547669-19.04728 23.209176-7.555996 6.661506-16.13759 12.060396-25.413423 15.988203-9.275832 3.927808-19.124959 6.333319-29.167076 7.12365-10.042117.790332-20.146289-.044821-29.922365-2.473211-9.776076-2.428391-19.096589-6.418355-27.601647-11.815829-8.505059-5.397474-16.083767-12.132083-22.443491-19.943783-6.359723-7.8117-11.417539-16.598638-14.978151-26.021524s-5.577594-19.358859-5.973064-29.424263c-.395471-10.065403.835726-20.128997 3.646051-29.802198s7.163134-18.829883 12.890354-27.11648c5.72722-8.286598 12.754175-15.595064 20.809534-21.643198 8.055359-6.048135 17.034091-10.757078 26.589502-13.945004 9.55541-3.187926 19.562909-4.813269 29.636079-4.813269z"/></g></g></svg>