<svg height="288pt" stroke-linejoin="round" viewBox="0 0 432 288" width="432pt" xmlns="http://www.w3.org/2000/svg"><g stroke-linejoin="round"><path d="m0 288h432v-288h-432z" fill="none"/><g><path d="m313.010128 106.789903c-7.280173-18.387616-19.923103-34.168572-36.279766-45.284549-16.356663-11.115976-35.683598-17.061718-55.459982-17.061718v98.668605z"/><path d="m221.27038 44.443636c-10.483712 0-20.900743 1.670869-30.858546 4.949644-9.957804 3.278774-19.329708 8.123746-27.76255 14.35234-8.432843 6.228593-15.81935 13.761577-21.881175 22.315084-6.061826 8.553508-10.721858 18.01873-13.804492 28.038988-3.082634 10.020259-4.548656 20.468087-4.342822 30.949778s2.080906 20.863909 5.554557 30.755418c3.473651 9.89151 8.501693 19.166483 14.894654 27.475409 6.392962 8.308927 14.069518 15.54611 22.740392 21.43883 8.670875 5.89272 18.225766 10.366016 28.304617 13.251322 10.07885 2.885305 20.553448 4.145915 31.029077 3.734326s20.819031-2.49014 30.640433-6.157329c9.821402-3.667188 18.995869-8.876363 27.177676-15.431227s15.266876-14.372033 20.988219-23.156932 10.006179-18.425776 12.693043-28.559333 3.741576-20.630886 3.124391-31.096415c-.617184-10.465529-2.898415-20.766127-6.757726-30.513636l-4.586988 1.816117c3.666346 9.260133 5.833515 19.045702 6.419841 28.987954.586325 9.942253-.415651 19.914715-2.968172 29.541594s-6.623115 18.785713-12.058391 27.131367c-5.435275 8.345654-12.166091 15.771964-19.938808 21.999085s-16.48846 11.175837-25.818792 14.659666-19.156564 5.458453-29.108411 5.849462c-9.951848.391009-19.902716-.80657-29.477624-3.54761s-18.652055-6.990671-26.889386-12.588755c-8.23733-5.598084-15.530059-12.473408-21.603372-20.366889-6.073313-7.89348-10.849953-16.704704-14.149922-26.101638-3.299968-9.396934-5.081286-19.260041-5.276829-29.217647-.195542-9.957607 1.197179-19.883044 4.125681-29.402289 2.928503-9.519246 7.355533-18.511207 13.114267-26.637039s12.775916-15.282166 20.787117-21.19933c8.0112-5.917165 16.914509-10.519887 26.374422-13.634723s19.356093-4.702161 29.315619-4.702161z"/></g></g></svg>