<?xml version="1.0" encoding="utf-8" standalone="no"?>
<!DOCTYPE svg PUBLIC "-//W3C//DTD SVG 1.1//EN"
  "http://www.w3.org/Graphics/SVG/1.1/DTD/svg11.dtd">
<!-- Created with matplotlib (http://matplotlib.org/) -->
<svg height="288pt" version="1.1" viewBox="0 0 432 288" width="432pt" xmlns="http://www.w3.org/2000/svg" xmlns:xlink="http://www.w3.org/1999/xlink">
 <defs>
  <style type="text/css">
*{stroke-linecap:butt;stroke-linejoin:round;}
  </style>
 </defs>
 <g id="figure_1">
  <g id="patch_1">
   <path d="M 0 288 
L 432 288 
L 432 0 
L 0 0 
z
" style="fill:none;"/>
  </g>
  <g id="axes_1">
   <g id="patch_2">
    <path d="M 315.398968 112.737886 
C 308.950109 92.890338 296.377891 75.586163 279.494557 63.319704 
C 262.611224 51.053244 242.268948 44.443637 221.4 44.443637 
L 221.4 143.28 
L 315.398968 112.737886 
z
" style="fill:#ffffff;"/>
   </g>
   <g id="patch_3">
    <path d="M 221.400009 44.443637 
C 211.028655 44.443636 200.721638 46.076106 190.857893 49.281031 
C 180.994148 52.485955 171.696053 57.223569 163.30545 63.319698 
C 154.914848 69.415827 147.535838 76.794835 141.439708 85.185437 
C 135.343577 93.576039 130.605961 102.874133 127.401036 112.737877 
C 124.19611 122.601622 122.563638 132.908638 122.563637 143.279993 
C 122.563637 153.651348 124.196107 163.958365 127.401031 173.82211 
C 130.605956 183.685855 135.34357 192.983949 141.439699 201.374552 
C 147.535828 209.765155 154.914837 217.144164 163.305439 223.240294 
C 171.696041 229.336424 180.994135 234.07404 190.85788 237.278966 
C 200.721624 240.483891 211.028641 242.116363 221.399996 242.116363 
C 231.771351 242.116364 242.078367 240.483893 251.942112 237.278969 
C 261.805857 234.074044 271.103951 229.336429 279.494554 223.2403 
C 287.885156 217.144171 295.264166 209.765162 301.360296 201.374559 
C 307.456425 192.983957 312.194041 183.685863 315.398966 173.822119 
C 318.603892 163.958374 320.236363 153.651357 320.236363 143.280003 
C 320.236363 132.908648 318.603893 122.601631 315.398968 112.737886 
L 310.699019 114.264992 
C 313.743698 123.635549 315.294545 133.427215 315.294545 143.280002 
C 315.294545 153.13279 313.743697 162.924455 310.699018 172.295013 
C 307.654339 181.66557 303.153604 190.498759 297.362281 198.469831 
C 291.570958 206.440903 284.560899 213.450962 276.589826 219.242285 
C 268.618754 225.033607 259.785564 229.534342 250.415006 232.57902 
C 241.044449 235.623698 231.252783 237.174545 221.399996 237.174545 
C 211.547209 237.174545 201.755543 235.623697 192.384986 232.579017 
C 183.014428 229.534338 174.181239 225.033603 166.210167 219.24228 
C 158.239095 213.450956 151.229037 206.440897 145.437714 198.469824 
C 139.646392 190.498752 135.145658 181.665562 132.10098 172.295004 
C 129.056302 162.924447 127.505455 153.132781 127.505455 143.279994 
C 127.505456 133.427206 129.056304 123.635541 132.100984 114.264984 
C 135.145663 104.894426 139.646399 96.061237 145.437722 88.090166 
C 151.229046 80.119094 158.239105 73.109036 166.210178 67.317713 
C 174.181251 61.526391 183.01444 57.025657 192.384998 53.980979 
C 201.755556 50.936301 211.547222 49.385455 221.400009 49.385455 
z
" style="fill:#ffffff;"/>
   </g>
   <g id="matplotlib.axis_1"/>
   <g id="matplotlib.axis_2"/>
  </g>
 </g>
</svg>
