<svg height="288pt" stroke-linejoin="round" viewBox="0 0 432 288" width="432pt" xmlns="http://www.w3.org/2000/svg"><g stroke-linejoin="round"><path d="m0 288h432v-288h-432z" fill="none"/><g fill="#fff"><path d="m315.398968 112.737886c-6.448859-19.847548-19.021077-37.151723-35.904411-49.418182-16.883333-12.26646-37.225609-18.876067-58.094557-18.876067v98.836363z"/><path d="m221.400009 44.443637c-10.371354-.000001-20.678371 1.632469-30.542116 4.837394-9.863745 3.204924-19.16184 7.942538-27.552443 14.038667-8.390602 6.096129-15.769612 13.475137-21.865742 21.865739-6.096131 8.390602-10.833747 17.688696-14.038672 27.55244-3.204926 9.863745-4.837398 20.170761-4.837399 30.542116 0 10.371355 1.63247 20.678372 4.837394 30.542117 3.204925 9.863745 7.942539 19.161839 14.038668 27.552442s13.475138 15.769612 21.86574 21.865742 17.688696 10.833746 27.552441 14.038672c9.863744 3.204925 20.170761 4.837397 30.542116 4.837397 10.371355.000001 20.678371-1.63247 30.542116-4.837394 9.863745-3.204925 19.161839-7.94254 27.552442-14.038669 8.390602-6.096129 15.769612-13.475138 21.865742-21.865741 6.096129-8.390602 10.833745-17.688696 14.03867-27.55244 3.204926-9.863745 4.837397-20.170762 4.837397-30.542116 0-10.371355-1.63247-20.678372-4.837395-30.542117l-4.699949 1.527106c3.044679 9.370557 4.595526 19.162223 4.595526 29.01501 0 9.852788-1.550848 19.644453-4.595527 29.015011-3.044679 9.370557-7.545414 18.203746-13.336737 26.174818s-12.801382 14.981131-20.772455 20.772454c-7.971072 5.791322-16.804262 10.292057-26.17482 13.336735-9.370557 3.044678-19.162223 4.595525-29.01501 4.595525s-19.644453-1.550848-29.01501-4.595528c-9.370558-3.044679-18.203747-7.545414-26.174819-13.336737-7.971072-5.791324-14.98113-12.801383-20.772453-20.772456-5.791322-7.971072-10.292056-16.804262-13.336734-26.17482-3.044678-9.370557-4.595525-19.162223-4.595525-29.01501.000001-9.852788 1.550849-19.644453 4.595529-29.01501 3.044679-9.370558 7.545415-18.203747 13.336738-26.174818 5.791324-7.971072 12.801383-14.98113 20.772456-20.772453 7.971073-5.791322 16.804262-10.292056 26.17482-13.336734s19.162224-4.595524 29.015011-4.595524z"/></g></g></svg>