<svg height="288pt" stroke-linejoin="round" viewBox="0 0 432 288" width="432pt" xmlns="http://www.w3.org/2000/svg"><g stroke-linejoin="round"><path d="m0 288h432v-288h-432z" fill="none"/><g><path d="m316.849153 118.57818c-5.444883-21.206416-17.796013-40.009214-35.095877-53.428363-17.299863-13.419149-38.583538-20.70618-60.477803-20.70618v98.673698z"/><path d="m221.275482 44.443637c-10.224338-.000001-20.386835 1.589132-30.123091 4.710415s-18.928492 7.73696-27.247101 13.681524c-8.318608 5.944565-15.662959 13.146106-21.769703 21.346396-6.106745 8.20029-10.902011 17.300131-14.213853 26.973228-3.311841 9.673096-5.100196 19.802433-5.300938 30.0248-.200742 10.222368 1.188557 20.414106 4.11808 30.209767 2.929524 9.795662 7.363834 19.076749 13.143927 27.510467 5.780094 8.433719 12.836051 15.918046 20.914863 22.184615 8.078812 6.26657 17.08275 11.239574 26.688958 14.740696 9.606209 3.501121 19.698481 5.488007 29.914937 5.889413 10.216455.401406 20.433506-.787524 30.284796-3.524159 9.851291-2.736634 19.217651-6.987867 27.763228-12.601262s16.166996-12.521047 22.590974-20.475266c6.423977-7.954219 11.572803-16.858784 15.261855-26.3944 3.689052-9.535617 5.873703-19.586935 6.475617-29.79354.601915-10.206605-.386188-20.445029-2.928878-30.348151l-4.778684 1.226958c2.415556 9.407965 3.354253 19.134468 2.782435 28.830743-.571819 9.696275-2.647238 19.245027-6.151837 28.303863s-8.395984 17.518172-14.498763 25.07468-13.343127 14.118777-21.461425 19.451503c-8.118298 5.332725-17.01634 9.371397-26.375066 11.971199-9.358726 2.599803-19.064924 3.729286-28.770557 3.347951-9.705633-.381336-19.293291-2.268877-28.419189-5.594943-9.125898-3.326065-17.67964-8.05042-25.354511-14.00366-7.674871-5.953241-14.37803-13.063352-19.869119-21.075385-5.491089-8.012032-9.703684-16.829065-12.486731-26.134943-2.783047-9.305879-4.102881-18.98803-3.912176-28.699279s1.889642-19.334119 5.035891-28.523561c3.14625-9.189441 7.701752-17.83429 13.50316-25.624566 5.801407-7.790276 12.77854-14.63174 20.681218-20.279076 7.902679-5.647336 16.635303-10.032229 25.884746-12.997448s18.903815-4.474895 28.616936-4.474894z"/></g></g></svg>