<svg height="288pt" stroke-linejoin="round" viewBox="0 0 432 288" width="432pt" xmlns="http://www.w3.org/2000/svg"><g stroke-linejoin="round"><path d="m0 288h432v-288h-432z" fill="none"/><g><path d="m318.155242 124.561868c-4.298089-22.531368-16.327216-42.871511-34.000984-57.492523-17.673769-14.621013-39.907666-22.625709-62.845323-22.625709v98.592654z"/><path d="m221.308917 44.443636c-10.086119.000002-20.112775 1.547733-29.729426 4.589082-9.616652 3.04135-18.709909 7.540457-26.961863 13.34003-8.251954 5.799572-15.565307 12.831227-21.684376 20.849131s-10.971704 16.927518-14.388254 26.417354c-3.416549 9.489836-5.356728 19.447998-5.752706 29.526341s.756914 20.158032 3.41837 29.886672 6.800095 18.991521 12.271226 27.464804c5.47113 8.473283 12.210243 16.057059 19.981732 22.486192 7.771488 6.429133 16.483719 11.627818 25.832105 15.414303s19.2227 6.116125 29.277727 6.907472 20.172207.035071 29.997835-2.242388c9.825629-2.277459 19.243851-6.049248 27.925397-11.1835 8.681546-5.134253 16.524051-11.570432 23.253336-19.083522 6.729284-7.51309 12.266002-16.014505 16.416584-25.207027 4.150583-9.192521 6.86609-18.967761 8.051586-28.983968 1.185496-10.016206.827002-20.155278-1.062948-30.062744l-4.842315.923722c1.795452 9.412092 2.136021 19.04421 1.0098 28.559606s-3.705953 18.801874-7.649006 27.53477c-3.943054 8.732896-9.202935 16.809239-15.595756 23.946675-6.39282 7.137436-13.8432 13.251806-22.090669 18.129346s-17.194779 8.460739-26.529126 10.624325-18.945669 2.882048-28.497944 2.130268c-9.552275-.751779-18.932873-2.964937-27.81384-6.562098s-17.157586-8.535911-24.540501-14.643588c-7.382914-6.107676-13.785071-13.312263-18.982645-21.361882s-9.129281-16.849355-11.657664-26.091564c-2.528383-9.242208-3.623631-18.817913-3.247452-28.392338.376179-9.574426 2.219349-19.03468 5.465071-28.050024s7.855726-17.479477 13.668841-25.096486c5.813116-7.617009 12.760801-14.297081 20.600157-19.806675 7.839357-5.509594 16.477951-9.783746 25.61377-12.673028s18.661142-4.359626 28.242954-4.359628z"/></g></g></svg>