<svg height="288pt" stroke-linejoin="round" viewBox="0 0 432 288" width="432pt" xmlns="http://www.w3.org/2000/svg"><g stroke-linejoin="round"><path d="m0 288h432v-288h-432z" fill="none"/><g fill="#fff"><path d="m319.187865 130.679609c-3.008222-23.812532-14.610814-45.726016-32.614825-61.598687s-41.19889-24.637286-65.200684-24.637286v98.592943z"/><path d="m221.372347 44.443636c-9.956346.000001-19.855497 1.508155-29.360133 4.473071-9.504636 2.964915-18.505557 7.352528-26.69605 13.013327s-15.476457 12.529747-21.609618 20.37278-11.043054 16.570041-14.562372 25.883646c-3.519317 9.313605-5.607624 19.106801-6.193762 29.045879s.336629 19.909846 2.736856 29.572544c2.400228 9.662699 6.250339 18.906311 11.419139 27.415855 5.1688 8.509543 11.596904 16.187252 19.065269 22.771501 7.468366 6.58425 15.891188 11.999393 24.981454 16.060906 9.090267 4.061514 18.743537 6.722733 28.63087 7.892976 9.887334 1.170243 19.895133.836064 29.682376-.991149 9.787242-1.827213 19.241482-5.126468 28.040558-9.785339 8.799077-4.658871 16.841897-10.623833 23.854395-17.691625 7.012499-7.067792 12.91411-15.157213 17.50373-23.992608 4.589621-8.835395 7.814521-18.315255 9.564809-28.116547 1.750289-9.801291 2.005858-19.811406.757997-29.689244l-4.890776.617849c1.185468 9.383945.942678 18.893555-.720096 28.204782-1.662775 9.311227-4.72643 18.317094-9.086569 26.710719-4.360139 8.393626-9.966669 16.078575-16.628543 22.792977-6.661874 6.714403-14.302553 12.381117-22.661676 16.807044-8.359122 4.425928-17.34065 7.56022-26.63853 9.296072-9.297881 1.735853-18.80529 2.053322-28.198257.941592-9.392966-1.111731-18.563573-3.639889-27.199326-7.498327-8.635753-3.858437-16.637435-9.002824-23.732382-15.257861s-13.201646-13.54886-18.112006-21.632926c-4.91036-8.084067-8.567965-16.865499-10.848181-26.045062s-3.156844-18.651793-2.600014-28.093917c.556831-9.442124 2.540723-18.745661 5.884075-27.593585 3.343351-8.847925 8.007749-17.138582 13.834252-24.589464 5.826503-7.450881 12.748169-13.976382 20.529138-19.354141 7.780968-5.377759 16.331843-9.545991 25.361247-12.362661 9.029404-2.816669 18.433598-4.249416 27.892127-4.249416z"/></g></g></svg>