<svg height="288pt" stroke-linejoin="round" viewBox="0 0 432 288" width="432pt" xmlns="http://www.w3.org/2000/svg"><g stroke-linejoin="round"><path d="m0 288h432v-288h-432z" fill="none"/><g fill="#fff"><path d="m319.863457 136.886028c-1.57476-25.030068-12.6381-48.540862-30.920311-65.709s-42.441284-26.733392-67.520842-26.733392v98.635788z"/><path d="m221.422295 44.443636c-9.830833.000001-19.606657 1.469732-29.002898 4.360394s-18.307746 7.169906-26.438636 12.695655c-8.130891 5.525748-15.390174 12.236162-21.53683 19.908443-6.146655 7.672282-11.111895 16.22057-14.730865 25.361048-3.618971 9.140478-5.851171 18.770853-6.622489 28.571381-.771317 9.800528-.07312 19.66153 2.07141 29.255604 2.144531 9.594075 5.711395 18.813854 10.582167 27.353225s10.990943 16.302769 18.157312 23.032437 15.298738 12.350293 24.127097 16.675261c8.82836 4.324968 18.253911 7.305878 27.96371 8.843758 9.709799 1.537881 19.595183 1.615522 29.327941.230345 9.732757-1.385177 19.203967-4.21767 28.099171-8.403436 8.895203-4.185765 17.114853-9.67796 24.386042-16.294234 7.27119-6.616274 13.512547-14.282584 18.516847-22.744395 5.004301-8.461812 8.715542-17.624428 11.010504-27.183634 2.294962-9.559207 3.147962-19.408026 2.530679-29.21946l-4.922058.30967c.586419 9.320863-.22393 18.677241-2.404144 27.758487s-5.705893 17.785731-10.459979 25.824452c-4.754086 8.03872-10.683375 15.321715-17.591005 21.607175s-14.716297 11.503045-23.16674 15.479523c-8.450444 3.976477-17.448094 6.667345-26.694213 7.983264-9.246119 1.315918-18.637234 1.242159-27.861543-.218828-9.224309-1.460986-18.178583-4.29285-26.565525-8.40157-8.386941-4.10872-16.112691-9.448313-22.920742-15.841498-6.808051-6.393184-12.622213-13.768413-17.249446-21.880815-4.627234-8.112403-8.015755-16.871193-10.053059-25.985564-2.037304-9.11437-2.700591-18.482322-1.967839-27.792824.732751-9.310501 2.853342-18.459358 6.291363-27.142812 3.438022-8.683453 8.155-16.804327 13.994323-24.092995 5.839323-7.288667 12.735642-13.66356 20.459988-18.913021s16.190275-9.314743 25.116704-12.060873c8.926429-2.746129 18.213462-4.142372 27.552754-4.142373z"/></g></g></svg>