<?xml version="1.0" encoding="utf-8" standalone="no"?>
<!DOCTYPE svg PUBLIC "-//W3C//DTD SVG 1.1//EN"
  "http://www.w3.org/Graphics/SVG/1.1/DTD/svg11.dtd">
<!-- Created with matplotlib (http://matplotlib.org/) -->
<svg height="288pt" version="1.1" viewBox="0 0 432 288" width="432pt" xmlns="http://www.w3.org/2000/svg" xmlns:xlink="http://www.w3.org/1999/xlink">
 <defs>
  <style type="text/css">
*{stroke-linecap:butt;stroke-linejoin:round;}
  </style>
 </defs>
 <g id="figure_1">
  <g id="patch_1">
   <path d="M 0 288 
L 432 288 
L 432 0 
L 0 0 
z
" style="fill:none;"/>
  </g>
  <g id="axes_1">
   <g id="patch_2">
    <path d="M 320.236364 142.332151 
C 320.236364 116.38046 309.916098 91.465136 291.565481 73.114519 
C 273.214864 54.763902 248.29954 44.443636 222.347849 44.443636 
L 222.347849 142.332151 
L 320.236364 142.332151 
z
"/>
   </g>
   <g id="patch_3">
    <path d="M 222.347849 44.443636 
C 202.989647 44.443636 184.05966 50.185985 167.963904 60.940826 
C 151.868147 71.695667 139.318717 86.987192 131.910653 104.871838 
C 124.50259 122.756485 122.563636 142.443014 126.340234 161.429253 
C 130.116832 180.415493 139.4419 197.861468 153.130216 211.549784 
C 166.818532 225.2381 184.264507 234.563168 203.250747 238.339766 
C 222.236986 242.116364 241.923515 240.17741 259.808162 232.769347 
C 277.692808 225.361283 292.984333 212.811853 303.739174 196.716096 
C 314.494015 180.62034 320.236364 161.690353 320.236364 142.332151 
L 315.341938 142.332151 
C 315.341938 160.722443 309.886707 178.70593 299.669608 193.996899 
C 289.452509 209.287868 274.92556 221.209827 257.935146 228.247487 
C 240.944732 235.285147 222.24253 237.127153 204.205602 233.539385 
C 186.168674 229.951617 169.594998 221.092802 156.591098 208.088902 
C 143.587198 195.085002 134.728383 178.511326 131.140615 160.474398 
C 127.552847 142.43747 129.394853 123.735268 136.432513 106.744854 
C 143.470173 89.75444 155.392132 75.227491 170.683101 65.010392 
C 185.97407 54.793293 203.957557 49.338062 222.347849 49.338062 
z
"/>
   </g>
   <g id="matplotlib.axis_1"/>
   <g id="matplotlib.axis_2"/>
  </g>
 </g>
</svg>
