<svg height="288pt" stroke-linejoin="round" viewBox="0 0 432 288" width="432pt" xmlns="http://www.w3.org/2000/svg"><g stroke-linejoin="round"><path d="m0 288h432v-288h-432z" fill="none"/><g><path d="m320.236364 142.332151c0-25.951691-10.320266-50.867015-28.670883-69.217632s-43.265941-28.670883-69.217632-28.670883v97.888515z"/><path d="m222.347849 44.443636c-19.358202 0-38.288189 5.742349-54.383945 16.49719-16.095757 10.754841-28.645187 26.046366-36.053251 43.931012-7.408063 17.884647-9.347017 37.571176-5.570419 56.557415 3.776598 18.98624 13.101666 36.432215 26.789982 50.120531s31.134291 23.013384 50.120531 26.789982c18.986239 3.776598 38.672768 1.837644 56.557415-5.570419 17.884646-7.408064 33.176171-19.957494 43.931012-36.053251 10.754841-16.095756 16.49719-35.025743 16.49719-54.383945h-4.894426c0 18.390292-5.455231 36.373779-15.67233 51.664748s-24.744048 27.212928-41.734462 34.250588-35.692616 8.879666-53.729544 5.291898-34.610604-12.446583-47.614504-25.450483-21.862715-29.577576-25.450483-47.614504-1.745762-36.73913 5.291898-53.729544 18.959619-31.517363 34.250588-41.734462 33.274456-15.67233 51.664748-15.67233z"/></g></g></svg>