<svg height="288pt" stroke-linejoin="round" viewBox="0 0 432 288" width="432pt" xmlns="http://www.w3.org/2000/svg"><g stroke-linejoin="round"><path d="m0 288h432v-288h-432z" fill="none"/><g><path d="m319.75576 148.5536c.840255-13.355486-1.065012-26.742586-5.597967-39.33335-4.532955-12.590765-11.598181-24.120165-20.758717-33.875144-9.160535-9.754979-20.223556-17.5302-32.504849-22.84479s-25.522344-8.05668-38.904236-8.05668v97.959069z"/><path d="m221.989991 44.443636c-19.110284 0-37.809249 5.592177-53.781765 16.084159-15.972515 10.491982-28.531015 25.432123-36.120624 42.970674-7.589608 17.538551-9.883617 36.920534-6.598003 55.746252 3.285615 18.825719 12.009417 36.284786 25.091306 50.215583 13.08189 13.930796 29.958734 23.733647 48.540999 28.194853 18.582265 4.461207 38.070044 3.388728 56.050542-3.08465 17.980498-6.473379 33.679712-18.068999 45.153912-33.3512s18.229458-33.593133 19.429402-52.665707l-4.888289-.307545c-1.139946 18.118945-7.557441 35.51433-18.457931 50.032422-10.90049 14.518091-25.814744 25.53393-42.896217 31.68364-17.081473 6.149709-35.594863 7.168564-53.248015 2.930418-17.653151-4.238146-33.686153-13.550854-46.113949-26.785111-12.427795-13.234257-20.715407-29.820371-23.83674-47.704803-3.121334-17.884433-.942026-36.297317 6.268103-52.95894 7.210128-16.661624 19.140703-30.854758 34.314593-40.822141 15.173889-9.967383 32.937907-15.27995 51.092676-15.27995z"/></g></g></svg>