<svg height="288pt" stroke-linejoin="round" viewBox="0 0 432 288" width="432pt" xmlns="http://www.w3.org/2000/svg"><g stroke-linejoin="round"><path d="m0 288h432v-288h-432z" fill="none"/><g><path d="m319.114854 154.856848c1.744964-13.81281.530067-27.840142-3.563737-41.14726-4.093803-13.307118-10.973514-25.591727-20.18069-36.035219s-20.532659-18.808624-33.221757-24.537972c-12.689098-5.729347-26.453553-8.692757-40.376146-8.692757v98.116005z"/><path d="m221.772542 44.44364c-18.878751-.000004-37.362282 5.448756-53.222201 15.689372-15.859919 10.240617-28.43218 24.844319-36.20106 42.050474s-10.409099 36.294348-7.602352 54.96329c2.806747 18.668943 10.942944 36.136976 23.427685 50.298138 12.48474 14.161162 28.795294 24.422532 46.965246 29.546991 18.169953 5.124459 37.438537 4.897447 55.482717-.653665 18.044179-5.551112 34.108452-16.193904 46.256096-30.64527 12.147645-14.451366 19.870045-32.106236 22.236181-50.836122l-4.867117-.61486c-2.247829 17.793392-9.584109 34.565518-21.124371 48.294316-11.540263 13.728798-26.801322 23.839449-43.943292 29.113006s-35.447125 5.489218-52.70858.620982-32.756481-14.616538-44.616985-28.069642c-11.860503-13.453103-19.589891-30.047734-22.2563-47.78323-2.66641-17.735496-.158201-35.869279 7.222235-52.215126s19.324083-30.219365 34.391006-39.94795c15.066924-9.728585 32.626277-14.904907 50.561091-14.904904z"/></g></g></svg>