<svg height="288pt" stroke-linejoin="round" viewBox="0 0 432 288" width="432pt" xmlns="http://www.w3.org/2000/svg"><g stroke-linejoin="round"><path d="m0 288h432v-288h-432z" fill="none"/><g fill="#fff"><path d="m318.021658 160.881966c2.704754-14.178819 2.245847-28.781498-1.343866-42.762506s-10.222463-26.998513-19.423356-38.120482c-9.200892-11.121969-20.744969-20.076472-33.805689-26.222381-13.060721-6.145909-27.318756-9.332957-41.75325-9.332957v98.063128z"/><path d="m221.695516 44.44364c-18.606712-.000004-36.834689 5.29571-52.544857 15.265682-15.710167 9.969972-28.262972 24.208329-36.185327 41.044184s-10.891744 35.583827-8.559707 54.043819 9.870565 35.880507 21.730927 50.217226c11.860363 14.336718 27.559732 25.006 45.255765 30.755791 17.696034 5.749792 36.668336 6.346022 54.690484 1.718722 18.022147-4.6273 34.360467-14.289755 47.097638-27.853464 12.737171-13.563708 21.354668-30.476498 24.841219-48.753634l-4.816308-.91876c-3.312223 17.363279-11.498846 33.43043-23.599158 46.315953s-27.621716 22.064855-44.742757 26.46079c-17.12104 4.395935-35.144727 3.829517-51.955959-1.632785s-31.725632-15.59812-42.992976-29.218002c-11.267345-13.619883-18.428946-30.169372-20.644381-47.706365-2.215436-17.536992.605484-35.347566 8.131721-51.341628 7.526238-15.994062 19.451402-29.520502 34.376061-38.991975 14.92466-9.471473 32.241238-14.502401 49.917614-14.502398z"/></g></g></svg>