<svg height="288pt" stroke-linejoin="round" viewBox="0 0 432 288" width="432pt" xmlns="http://www.w3.org/2000/svg"><g stroke-linejoin="round"><path d="m0 288h432v-288h-432z" fill="none"/><g fill="#fff"><path d="m316.498796 166.809766c3.71643-14.474544 4.073099-29.609239 1.042637-44.242783s-9.368509-28.38183-18.527816-40.189937c-9.159308-11.808107-20.899458-21.366092-34.319617-27.94056-13.42016-6.574468-28.16807-9.99285-43.112109-9.99285v97.995617z"/><path d="m221.581872 44.443636c-18.332353.000004-36.30203 5.144245-51.857218 14.845344-15.555187 9.701099-28.080418 23.575216-36.145536 40.038176-8.065117 16.46296-11.351013 34.863379-9.482495 53.10026s8.817517 35.588651 20.053547 50.07405c11.236031 14.4854 26.31452 25.53129 43.513776 31.876428 17.199255 6.345139 35.838761 7.73847 53.790219 4.0209s34.50459-12.398949 47.769326-25.05288c13.264736-12.65393 22.716235-28.779739 27.275305-46.536148l-4.745845-1.218525c-4.331117 16.868588-13.310041 32.188106-25.91154 44.20934s-28.326975 20.268544-45.38086 23.800236c-17.053885 3.531691-34.761415 2.208027-51.100708-3.819855-16.339293-6.027881-30.663858-16.521477-41.338086-30.282606-10.674229-13.76113-17.275779-30.245312-19.050871-47.570348-1.775091-17.325037 1.346509-34.805435 9.008371-50.445247s19.560831-28.820223 34.338259-38.036267 31.848622-14.103074 49.264357-14.103077z"/></g></g></svg>