<?xml version="1.0" encoding="utf-8" standalone="no"?>
<!DOCTYPE svg PUBLIC "-//W3C//DTD SVG 1.1//EN"
  "http://www.w3.org/Graphics/SVG/1.1/DTD/svg11.dtd">
<!-- Created with matplotlib (http://matplotlib.org/) -->
<svg height="288pt" version="1.1" viewBox="0 0 432 288" width="432pt" xmlns="http://www.w3.org/2000/svg" xmlns:xlink="http://www.w3.org/1999/xlink">
 <defs>
  <style type="text/css">
*{stroke-linecap:butt;stroke-linejoin:round;}
  </style>
 </defs>
 <g id="figure_1">
  <g id="patch_1">
   <path d="M 0 288 
L 432 288 
L 432 0 
L 0 0 
z
" style="fill:none;"/>
  </g>
  <g id="axes_1">
   <g id="patch_2">
    <path d="M 314.579718 172.76121 
C 319.359827 158.049552 320.590434 142.413219 318.170589 127.134911 
C 315.750744 111.856604 309.748475 97.365845 300.656171 84.85136 
C 291.563866 72.336876 279.637139 62.150488 265.854379 55.127821 
C 252.071619 48.105153 236.820304 44.443636 221.351551 44.443636 
L 221.351551 142.469535 
L 314.579718 172.76121 
z
" style="fill:#ffffff;"/>
   </g>
   <g id="patch_3">
    <path d="M 221.351551 44.443636 
C 203.275023 44.443636 185.545934 49.443757 170.13316 58.888716 
C 154.720387 68.333676 142.216409 81.860403 134.009837 97.966707 
C 125.803265 114.07301 122.209566 132.139752 123.627833 150.160555 
C 125.046101 168.181359 131.421815 185.463491 142.046931 200.087709 
C 152.672047 214.711928 167.138126 226.116066 183.838659 233.033654 
C 200.539193 239.951243 218.832199 242.116364 236.686175 239.288573 
C 254.54015 236.460782 271.268774 228.748782 285.014275 217.009017 
C 298.759775 205.269252 308.993763 189.953009 314.579718 172.76121 
L 309.91831 171.246627 
C 304.611652 187.578836 294.889364 202.129266 281.831138 213.282043 
C 268.772913 224.434819 252.88072 231.761219 235.919443 234.447621 
C 218.958166 237.134022 201.579811 235.077157 185.714304 228.505448 
C 169.848797 221.933739 156.106022 211.099808 146.012162 197.206801 
C 135.918302 183.313793 129.861373 166.895768 128.514019 149.776004 
C 127.166665 132.656241 130.580679 115.492837 138.376922 100.191848 
C 146.173166 84.890859 158.051945 72.040469 172.69408 63.067757 
C 187.336215 54.095045 204.17885 49.344931 221.351551 49.344931 
z
" style="fill:#ffffff;"/>
   </g>
   <g id="matplotlib.axis_1"/>
   <g id="matplotlib.axis_2"/>
  </g>
 </g>
</svg>
