<svg height="288pt" stroke-linejoin="round" viewBox="0 0 432 288" width="432pt" xmlns="http://www.w3.org/2000/svg"><g stroke-linejoin="round"><path d="m0 288h432v-288h-432z" fill="none"/><g fill="#fff"><path d="m314.579718 172.76121c4.780109-14.711658 6.010716-30.347991 3.590871-45.626299-2.419845-15.278307-8.422114-29.769066-17.514418-42.283551-9.092305-12.514484-21.019032-22.700872-34.801792-29.723539-13.78276-7.022668-29.034075-10.684185-44.502828-10.684185v98.025899z"/><path d="m221.351551 44.443636c-18.076528 0-35.805617 5.000121-51.218391 14.44508-15.412773 9.44496-27.916751 22.971687-36.123323 39.077991-8.206572 16.106303-11.800271 34.173045-10.382004 52.193848 1.418268 18.020804 7.793982 35.302936 18.419098 49.927154 10.625116 14.624219 25.091195 26.028357 41.791728 32.945945 16.700534 6.917589 34.99354 9.08271 52.847516 6.254919 17.853975-2.827791 34.582599-10.539791 48.3281-22.279556 13.7455-11.739765 23.979488-27.056008 29.565443-44.247807l-4.661408-1.514583c-5.306658 16.332209-15.028946 30.882639-28.087172 42.035416-13.058225 11.152776-28.950418 18.479176-45.911695 21.165578-16.961277 2.686401-34.339632.629536-50.205139-5.942173s-29.608282-17.40564-39.702142-31.298647c-10.09386-13.893008-16.150789-30.311033-17.498143-47.430797-1.347354-17.119763 2.06666-34.283167 9.862903-49.584156 7.796244-15.300989 19.675023-28.151379 34.317158-37.124091s31.48477-13.722826 48.657471-13.722826z"/></g></g></svg>