<svg height="288pt" stroke-linejoin="round" viewBox="0 0 432 288" width="432pt" xmlns="http://www.w3.org/2000/svg"><g stroke-linejoin="round"><path d="m0 288h432v-288h-432z" fill="none"/><g><path d="m312.495184 178.730531c5.893751-14.885916 8.056832-30.990235 6.299963-46.903758-1.75687-15.913523-7.380904-31.158136-16.379977-44.399869-8.999072-13.241733-21.10281-24.082745-35.252082-31.5744-14.149273-7.491654-29.918973-11.408868-45.929182-11.408868v98.153997z"/><path d="m221.233906 44.443636c-17.838453 0-35.343932 4.862926-50.626447 14.063748-15.282515 9.200823-27.771538 22.396056-36.118681 38.161067-8.347144 15.765012-12.240794 33.511261-11.260568 51.322761.980227 17.811501 6.797734 35.023313 16.824432 49.77715 10.026697 14.753838 23.888268 26.498911 40.088137 33.967153s34.133262 10.380849 51.863987 8.423359c17.730726-1.957491 34.596859-8.712 48.777437-19.534275 14.180577-10.822274 25.146208-25.308295 31.712981-41.894068l-4.563064-1.806645c-6.238434 15.756485-16.655784 29.518204-30.127332 39.799365-13.471549 10.281161-29.494376 16.697945-46.338565 18.55756-16.844189 1.859616-33.880912-.90736-49.270788-8.00219-15.389875-7.09483-28.558367-18.252649-38.08373-32.268795s-15.051995-30.367367-15.98321-47.288293c-.931215-16.920925 2.767752-33.779862 10.697539-48.756623 7.929787-14.97676 19.794358-27.512232 34.312747-36.253013s31.148595-13.360561 48.095125-13.360561z"/></g></g></svg>