<svg height="288pt" stroke-linejoin="round" viewBox="0 0 432 288" width="432pt" xmlns="http://www.w3.org/2000/svg"><g stroke-linejoin="round"><path d="m0 288h432v-288h-432z" fill="none"/><g><path d="m310.246442 184.712263c7.055185-14.993033 10.209455-31.5283 9.169012-48.065656-1.040442-16.537356-6.24226-32.546903-15.120939-46.537461-8.878679-13.990559-21.149724-25.513837-35.670172-33.496521-14.520449-7.982684-30.825029-12.168989-47.395083-12.168989v98.380326z"/><path d="m221.22926 44.443636c-17.617419 0-34.915607 4.732249-50.07966 13.700245s-27.64442 21.846736-36.131677 37.284999c-8.487256 15.438262-12.67382 32.876558-12.120443 50.485284.553376 17.608726 5.82664 34.749736 15.266525 49.624614 9.439886 14.874879 22.704289 26.944557 38.401525 34.942697 15.697235 7.998141 33.25843 11.634889 50.841085 10.528681 17.582656-1.106207 34.549569-6.915281 49.120594-16.81774s26.218102-23.539435 33.719233-39.480153l-4.450859-2.094415c-7.126075 15.143682-18.190798 28.098809-32.033271 37.506145-13.842474 9.407336-29.961042 14.925956-46.664564 15.976853-16.703523 1.050898-33.386658-2.404013-48.299032-10.002247-14.912374-7.598233-27.513557-19.064427-36.481448-33.195562-8.967891-14.131134-13.977491-30.415093-14.503199-47.143383s3.451528-33.294671 11.514421-47.96102c8.062894-14.666349 19.919242-26.901152 34.325093-35.420749 14.40585-8.519596 30.839129-13.015232 47.575677-13.015232z"/></g></g></svg>