<svg height="288pt" stroke-linejoin="round" viewBox="0 0 432 288" width="432pt" xmlns="http://www.w3.org/2000/svg"><g stroke-linejoin="round"><path d="m0 288h432v-288h-432z" fill="none"/><g><path d="m307.834712 190.701176c8.262084-15.02867 12.466442-31.954337 12.197063-49.102235-.26938-17.147897-5.00331-33.933151-13.733377-48.694888-8.730066-14.761738-21.158506-26.996471-36.055548-35.493594-14.897042-8.497124-31.754582-12.966819-48.904596-12.966819v98.705697z"/><path d="m221.338273 44.44364c-17.412784-.000004-34.519404 4.607707-49.576473 13.353545-15.05707 8.745839-27.5351 21.322253-36.162417 36.447545-8.627317 15.125291-13.100537 32.26757-12.963782 49.679817.136756 17.412247 4.878678 34.48215 13.742505 49.470066 8.863826 14.987917 21.537854 27.366787 36.730438 35.875045 15.192583 8.508258 32.369466 12.846706 49.780101 12.573199 17.410636-.273506 34.44277-5.149348 49.360608-14.130615s27.196786-21.752127 35.585459-37.011066l-4.324822-2.377592c-7.969241 14.495992-19.634241 26.628309-33.806187 35.160513-14.171946 8.532203-30.352473 13.164253-46.892577 13.424084s-32.858143-3.861694-47.291097-11.944539-26.473281-19.842772-34.893916-34.081292c-8.420635-14.238521-12.925461-30.454929-13.055379-46.996563-.129918-16.541635 4.119641-32.8268 12.315593-47.195827 8.195951-14.369027 20.050079-26.316621 34.354295-34.625167 14.304217-8.308547 30.555505-12.685872 47.09765-12.685869z"/></g></g></svg>