<svg height="288pt" stroke-linejoin="round" viewBox="0 0 432 288" width="432pt" xmlns="http://www.w3.org/2000/svg"><g stroke-linejoin="round"><path d="m0 288h432v-288h-432z" fill="none"/><g><path d="m304.519178 195.863339c9.460163-14.906831 14.744753-32.084659 15.299319-49.731209.554565-17.646551-3.640992-35.122305-12.146479-50.593729s-21.012663-28.377828-36.209289-37.365088c-15.196625-8.987259-32.531971-13.729673-50.187233-13.729673v98.591649z"/><path d="m221.275514 44.44364c-17.130197-.000004-33.96826 4.464525-48.848091 12.951827-14.879831 8.487303-27.293914 20.707897-36.013896 35.452577-8.719983 14.74468-13.448446 31.510538-13.717518 48.638623-.269071 17.128084 3.930426 34.034195 12.182961 49.045503 8.252534 15.011308 20.276629 27.615811 34.882523 36.566316s31.295413 13.94173 48.417158 14.479804 34.091733-3.395357 49.230814-11.411087c15.13908-8.01573 27.930894-19.84036 37.109713-34.303864l-4.162184-2.641402c-8.719878 13.740329-20.872101 24.973727-35.254228 32.58867-14.382126 7.614943-30.503615 11.351703-46.769273 10.840533-16.265657-.51117-32.1207-5.252834-45.996299-13.755814-13.8756-8.50298-25.298491-20.477258-33.138398-34.738s-11.82943-30.321548-11.573812-46.593228 4.747658-32.199246 13.031641-46.206692 20.077362-25.61701 34.213201-33.679948c14.13584-8.062937 30.132-12.304239 46.405688-12.304236z"/></g></g></svg>