<svg height="288pt" stroke-linejoin="round" viewBox="0 0 432 288" width="432pt" xmlns="http://www.w3.org/2000/svg"><g stroke-linejoin="round"><path d="m0 288h432v-288h-432z" fill="none"/><g><path d="m300.681564 200.567336c10.657857-14.669284 17.053219-32.004671 18.475857-50.081007s-2.182135-36.198751-10.413996-52.354688c-8.231861-16.155936-20.774371-29.724347-36.23464-39.198411-15.460269-9.474065-33.243992-14.489594-51.376223-14.489594v98.327972z"/><path d="m221.132543 44.443636c-16.822746.000004-33.367354 4.317264-48.045131 12.537217-14.677778 8.219954-27.003378 20.070793-35.793236 34.414543s-13.753323 30.70611-14.413779 47.515887c-.660456 16.809776 3.003937 33.511124 10.641305 48.5003 7.637369 14.989175 18.99517 27.770535 32.982773 37.11675 13.987603 9.346216 30.142483 14.948238 46.91337 16.268134 16.770887 1.319897 33.603223-1.685978 48.880684-8.728985 15.277462-7.043008 28.494873-17.890258 38.383035-31.500146l-3.977451-2.889786c-9.393753 12.929393-21.950294 23.234281-36.463882 29.925138s-30.504307 9.546438-46.43665 8.292536c-15.932343-1.253901-31.279479-6.575822-44.567702-15.454727-13.288222-8.878905-24.078134-21.021197-31.333634-35.260913-7.2555-14.239717-10.736673-30.105998-10.10924-46.075285s5.342725-31.513529 13.69309-45.140092c8.350366-13.626563 20.059686-24.88486 34.003574-32.693816s29.661267-11.910353 45.642875-11.910356z"/></g></g></svg>