<svg height="288pt" stroke-linejoin="round" viewBox="0 0 432 288" width="432pt" xmlns="http://www.w3.org/2000/svg"><g stroke-linejoin="round"><path d="m0 288h432v-288h-432z" fill="none"/><g><path d="m296.696427 205.217607c11.875363-14.354846 19.423427-31.797388 21.758416-50.280723 2.33499-18.483334-.638151-37.255014-8.570521-54.11216-7.93237-16.857145-20.501045-31.11351-36.231077-41.096092-15.730031-9.982582-33.981057-15.284996-52.611297-15.284996v98.187131z"/><path d="m221.041948 44.443636c-16.537514 0-32.810076 4.178084-47.30201 12.145092s-26.738882 19.467657-35.600125 33.430742c-8.861244 13.963084-14.052846 29.941192-15.091246 46.446073s2.109676 33.007677 9.151007 47.971267c7.04133 14.963591 17.750293 27.908504 31.129422 37.629012 13.379129 9.720507 28.999724 15.905139 45.406835 17.97784 16.40711 2.072702 33.075011-.032943 48.451203-6.120806 15.376192-6.087864 28.967984-15.962877 39.509393-28.705249l-3.782724-3.129342c-10.014339 12.105254-22.92654 21.486516-37.533923 27.269986-14.607382 5.783471-30.441888 7.783833-46.028643 5.814767s-30.426321-7.844467-43.136493-17.078949c-12.710173-9.234482-22.883688-21.53215-29.572951-35.747561-6.689264-14.215411-9.679937-29.893067-8.693457-45.572704s5.918502-30.858839 14.336683-44.123769c8.418182-13.264931 20.052782-24.190547 33.820119-31.759205 13.767338-7.568658 29.226272-11.537837 44.93691-11.537837z"/></g></g></svg>