<svg height="288pt" stroke-linejoin="round" viewBox="0 0 432 288" width="432pt" xmlns="http://www.w3.org/2000/svg"><g stroke-linejoin="round"><path d="m0 288h432v-288h-432z" fill="none"/><g><path d="m292.565228 209.812807c13.109835-13.960555 21.852272-31.456918 25.144905-50.322851s.993724-38.28932-6.612097-55.865336c-7.605821-17.576017-20.191149-32.548072-36.197784-43.062467-16.006636-10.514394-34.745545-16.118517-53.896652-16.118517v98.168326z"/><path d="m221.0036 44.443636c-16.273385 0-32.294247 4.046464-46.615856 11.773985s-26.499493 18.896274-35.433953 32.49769c-8.93446 13.601415-14.348214 29.21337-15.752385 45.426062-1.404172 16.212692 1.244818 32.522956 7.707759 47.457931 6.46294 14.934975 16.539253 28.03115 29.319017 38.105905 12.779765 10.074755 27.866361 16.815417 43.897424 19.613286 16.031064 2.797869 32.509069 1.566112 47.946006-3.584039 15.436936-5.150152 29.353717-14.058862 40.493616-25.921649l-3.578082-3.360042c-10.582904 11.269648-23.803845 19.732922-38.468935 24.625566s-30.319195 6.062813-45.548705 3.404837c-15.229511-2.657975-29.561776-9.061604-41.702553-18.632621-12.140776-9.571017-21.713273-22.012384-27.853067-36.20061-6.139793-14.188226-8.656334-29.682978-7.322371-45.085035s6.47703-30.233414 14.964767-43.154759c8.487737-12.921344 20.056726-23.53166 33.662255-30.872805 13.605528-7.341144 28.825347-11.185285 44.285063-11.185285z"/></g></g></svg>