<svg height="288pt" stroke-linejoin="round" viewBox="0 0 432 288" width="432pt" xmlns="http://www.w3.org/2000/svg"><g stroke-linejoin="round"><path d="m0 288h432v-288h-432z" fill="none"/><g fill="#fff"><path d="m288.28912 214.351737c14.358322-13.483363 24.336576-30.977105 28.633291-50.199507s2.716594-39.299747-4.534269-57.613334c-7.250862-18.313587-19.842892-34.031009-36.133703-45.102233-16.29081-11.071223-35.539935-16.993027-55.236698-16.993027v98.271363z"/><path d="m221.017741 44.443636c-16.029353 0-31.81791 3.921898-45.984101 11.42251-14.166191 7.500613-26.284402 18.354587-35.294234 31.612154-9.009833 13.257567-14.640593 28.520408-16.399563 44.45296-1.758969 15.932551.406698 32.056126 6.307496 46.959841 5.900799 14.903716 15.359443 28.139797 27.548259 38.550029s26.741597 17.681844 42.384911 21.178539c15.643315 3.496695 31.907167 3.113415 47.368398-1.116299 15.461232-4.229715 29.655317-12.178786 41.340213-23.151633l-3.363569-3.581837c-11.100651 10.424205-24.585032 17.975822-39.273202 21.994051s-30.138829 4.382344-44.999978 1.060484-28.686291-10.229891-40.265666-20.119611c-11.579375-9.889721-20.565087-22.463998-26.170846-36.622528-5.605758-14.158529-7.663142-29.475926-5.992121-44.611849 1.671022-15.135924 7.020243-29.635624 15.579584-42.230312s20.071641-22.905964 33.529523-30.031546 28.45701-10.851385 43.684896-10.851385z"/></g></g></svg>