<svg height="288pt" stroke-linejoin="round" viewBox="0 0 432 288" width="432pt" xmlns="http://www.w3.org/2000/svg"><g stroke-linejoin="round"><path d="m0 288h432v-288h-432z" fill="none"/><g><path d="m283.730058 218.445376c15.583-12.891381 26.813259-30.283983 32.149874-49.791369 5.336616-19.507387 4.523812-40.194597-2.326887-59.223142-6.850698-19.028545-19.410947-35.486414-35.957358-47.115425-16.54641-11.629012-36.285935-17.871804-56.510119-17.871804v98.277574z"/><path d="m221.085568 44.443636c-15.769358 0-31.309504 3.795464-45.303444 11.064734s-26.034863 17.801025-35.102326 30.702721-14.897871 27.798273-16.997109 43.42728c-2.099237 15.629007-.406278 31.536099 4.935402 46.373184s14.176796 28.172842 25.756591 38.877093 25.567638 18.465819 40.778089 22.626926c15.210452 4.161108 31.201336 4.60079 46.617458 1.281784 15.416123-3.319006 29.809331-10.300214 41.959829-20.351982l-3.132225-3.786208c-11.542973 9.549179-25.21652 16.181327-39.861837 19.334383-14.645316 3.153055-29.836656 2.735357-44.286585-1.217695s-27.73838-11.326541-38.739185-21.49558-19.394165-22.838007-24.468761-36.933238c-5.074597-14.095231-6.682907-29.206969-4.688632-44.054525 1.994276-14.847556 7.533163-28.999305 16.147253-41.255916s20.052967-22.261778 33.34721-29.167585c13.294243-6.905806 28.057382-10.511497 43.038272-10.511497z"/></g></g></svg>