<svg height="288pt" stroke-linejoin="round" viewBox="0 0 432 288" width="432pt" xmlns="http://www.w3.org/2000/svg"><g stroke-linejoin="round"><path d="m0 288h432v-288h-432z" fill="none"/><g><path d="m278.944298 222.140876c16.779517-12.191032 29.274429-29.388802 35.683635-49.114307s6.409207-40.983118.000002-60.708624-18.904116-36.923276-35.683633-49.114309c-16.779518-12.191033-36.996709-18.759997-57.737333-18.759997v98.228616z"/><path d="m221.206988 44.443639c-15.500743-.000003-30.783598 3.669083-44.594862 10.706271s-25.762658 17.244639-34.873768 29.785001c-9.111109 12.540363-15.125793 27.061088-17.550645 42.37099-2.424853 15.309903-1.191703 30.978572 3.598288 45.720655s13.002162 28.143131 23.962841 39.103813c10.96068 10.960681 24.361727 19.172855 39.103809 23.962849 14.742081 4.789994 30.410751 6.023146 45.720654 3.598296 15.309902-2.424849 29.830628-8.43953 42.370993-17.550638l-2.886867-3.973431c-11.913346 8.655552-25.708035 14.369499-40.252443 16.673106s-29.429644 1.132113-43.434621-3.418382c-14.004978-4.550494-26.735973-12.352059-37.148618-22.764706s-18.214208-23.143643-22.7647-37.148622c-4.550491-14.004979-5.721983-28.890215-3.418373-43.434622 2.303609-14.544407 8.017559-28.339096 16.673113-40.25244 8.655554-11.913345 20.009378-21.610424 33.130079-28.295752s27.639413-10.17096 42.365119-10.170957z"/></g></g></svg>