<svg height="288pt" stroke-linejoin="round" viewBox="0 0 432 288" width="432pt" xmlns="http://www.w3.org/2000/svg"><g stroke-linejoin="round"><path d="m0 288h432v-288h-432z" fill="none"/><g><path d="m273.632687 225.768765c17.972751-11.405855 31.764147-28.345938 39.288374-48.258229 7.524227-19.91229 8.381826-41.739648 2.443093-62.1809-5.938732-20.441251-18.358511-38.411174-35.380965-51.191994s-37.743865-19.694006-59.030324-19.694006v98.315017z"/><path d="m220.952847 44.443636c-15.253504.000003-30.299768 3.549861-43.944707 10.367853-13.644938 6.817992-25.517783 16.718857-34.676294 28.916851-9.15851 12.197994-15.353825 26.361667-18.094279 41.366975-2.740454 15.005309-1.951582 30.44452 2.304012 45.092363 4.255593 14.647842 11.862272 28.106297 22.216362 39.307287 10.354091 11.20099 23.174246 19.840156 37.443045 25.231885s29.598523 7.389514 44.772588 5.834808 29.780155-6.619657 42.659113-14.792893l-2.633991-4.150505c-12.235011 7.764574-26.110795 12.576277-40.526157 14.053248-14.415362 1.47697-28.9786-.420925-42.533959-5.543068-13.555359-5.122142-25.734507-13.32935-35.570892-23.97029-9.836386-10.640941-17.062731-23.426473-21.105545-37.341923-4.042814-13.915451-4.792243-28.582702-2.188811-42.837745 2.603431-14.255043 8.488981-27.710532 17.189565-39.298626 8.700585-11.588095 19.979788-20.993916 32.942479-27.471009 12.962692-6.477092 27.256644-9.849457 41.747472-9.84946z"/></g></g></svg>