<svg height="288pt" stroke-linejoin="round" viewBox="0 0 432 288" width="432pt" xmlns="http://www.w3.org/2000/svg"><g stroke-linejoin="round"><path d="m0 288h432v-288h-432z" fill="none"/><g><path d="m268.199764 229.329512c19.159536-10.533046 34.279053-27.149181 42.962278-47.214935 8.683226-20.065754 10.445842-42.461935 5.008495-63.639001s-17.771384-39.953841-35.047304-53.354418c-17.27592-13.400576-38.530139-20.677522-60.394102-20.677522v98.537132z"/><path d="m220.729113 44.443636c-15.026619.000003-29.856025 3.437278-43.350341 10.048078-13.494317 6.610801-25.299341 16.221604-34.509259 28.094964-9.209919 11.873359-15.582987 25.697618-18.630192 40.412026s-2.688563 29.932736 1.048407 44.487266c3.73697 14.554529 10.754178 28.063226 20.513188 39.489556 9.759009 11.426329 22.003661 20.470367 35.794411 26.438155 13.790749 5.967789 28.765611 8.702683 43.775548 7.994831 15.009937-.707853 29.660963-4.839871 42.828889-12.079l-2.373532-4.317438c-12.509529 6.877174-26.428004 10.802591-40.687444 11.47505-14.25944.67246-28.485559-1.925689-41.586771-7.595088s-24.733631-14.261235-34.00469-25.116248-15.937408-23.688276-19.487529-37.515078c-3.550122-13.826803-3.890832-28.284215-.995987-42.262903 2.894845-13.978687 8.94926-27.111733 17.698683-38.391425 8.749422-11.279691 19.964195-20.409955 32.783796-26.690215 12.819601-6.280261 26.907536-9.545671 41.182824-9.545674z"/></g></g></svg>