<svg height="288pt" stroke-linejoin="round" viewBox="0 0 432 288" width="432pt" xmlns="http://www.w3.org/2000/svg"><g stroke-linejoin="round"><path d="m0 288h432v-288h-432z" fill="none"/><g fill="#fff"><path d="m262.624256 232.601999c20.312611-9.558388 36.772308-25.761545 46.648575-45.921513 9.876268-20.159968 12.59101-43.096708 7.693877-65.005224-4.897132-21.908515-17.119494-41.506418-34.639503-55.542593-17.52001-14.036175-39.312158-21.689033-61.761321-21.689033v98.779761z"/><path d="m220.565884 44.443636c-14.801744 0-29.415943 3.326971-42.75905 9.73424s-25.076998 15.73247-34.331679 27.2842c-9.254681 11.551731-15.795633 25.03726-19.137885 39.456725-3.342253 14.419464-3.401111 29.407462-.172211 43.852731 3.228899 14.44527 9.663735 27.981756 18.827404 39.605815 9.163669 11.62406 20.823958 21.041131 34.116331 27.552998 13.292374 6.511867 27.879993 9.953515 42.681279 10.069767 14.801287.116252 29.441165-3.095838 42.834183-9.398113l-2.102918-4.46893c-12.723368 5.987161-26.631252 9.038646-40.692474 8.928207-14.061223-.110439-27.91946-3.380005-40.547215-9.566278-12.627755-6.186274-23.705029-15.132491-32.410515-26.175348s-14.818579-23.902518-17.886034-37.625524-3.01154-27.961605.1636-41.660096 9.389044-26.509744 18.180992-37.483888c8.791947-10.974143 19.939143-19.833085 32.615094-25.91999 12.675952-6.086905 26.559441-9.247528 40.621098-9.247528z"/></g></g></svg>