<svg height="288pt" stroke-linejoin="round" viewBox="0 0 432 288" width="432pt" xmlns="http://www.w3.org/2000/svg"><g stroke-linejoin="round"><path d="m0 288h432v-288h-432z" fill="none"/><g><path d="m256.86388 234.484998c21.302187-8.434132 39.00748-24.043449 50.044979-44.120584 11.037498-20.077135 14.729908-43.390099 10.436799-65.895364s-16.3083-42.821844-33.961593-57.425918-39.861432-22.599496-62.772515-22.599496v98.478432z"/><path d="m220.61155 44.443636c-14.495625 0-28.814043 3.200546-41.930077 9.372483s-24.709 15.164363-33.948859 26.333435c-9.239859 11.169071-15.9007 24.241706-19.505615 38.281925-3.604915 14.040218-4.065766 28.704741-1.349557 42.943608 2.716209 14.238868 8.543069 27.703945 17.063384 39.431152 8.520314 11.727207 19.525765 21.429817 32.228379 28.413138 12.702613 6.98332 26.791813 11.076611 41.258835 11.986799 14.467021.910188 28.958149-1.384982 42.43584-6.721178l-1.812616-4.578146c-12.803807 5.069386-26.570379 7.249797-40.314049 6.385119-13.74367-.864679-27.128411-4.753305-39.195893-11.38746-12.067483-6.634154-22.522661-15.851634-30.61696-26.99248-8.094299-11.140847-13.629816-23.93267-16.210215-37.459595-2.580399-13.526924-2.14259-27.45822 1.28208-40.796428 3.424669-13.338207 9.752467-25.757211 18.530334-36.367829 8.777866-10.610617 19.791184-19.153422 32.251416-25.016762 12.460232-5.863341 26.062729-8.903859 39.833573-8.903859z"/></g></g></svg>