<svg height="288pt" stroke-linejoin="round" viewBox="0 0 432 288" width="432pt" xmlns="http://www.w3.org/2000/svg"><g stroke-linejoin="round"><path d="m0 288h432v-288h-432z" fill="none"/><path d="m251.070116 236.314035c22.263881-7.233975 41.229377-22.185168 53.460875-42.14516 12.231497-19.959993 16.94295-43.646073 13.280876-66.767493-3.662074-23.121419-15.462335-44.192301-33.263158-59.395639-17.800824-15.203339-40.458255-23.562107-63.867886-23.562107v98.341796z"/><path d="m220.680823 44.443636c-14.21502 0-28.262479 3.08211-41.171751 9.033366-12.909273 5.951256-24.376022 14.631359-33.607939 25.440544-9.231916 10.809186-16.011356 23.492628-19.869887 37.173947-3.858531 13.68132-4.705187 28.03798-2.481468 42.077989 2.22372 14.040009 7.46539 27.432372 15.362833 39.251728 7.897442 11.819356 18.264473 21.787063 30.384769 29.21439 12.120297 7.427326 25.708123 12.139173 39.82461 13.809968 14.116488 1.670796 28.42884.261151 41.948126-4.131533l-1.519465-4.67643c-12.843322 4.17305-26.440056 5.512212-39.850719 3.924956-13.410663-1.587255-26.319098-6.063509-37.83338-13.11947-11.514281-7.05596-21.362961-16.525281-28.865531-27.75367-7.50257-11.228388-12.482157-23.951133-14.59469-37.289142-2.112534-13.338008-1.308211-26.976835 2.357394-39.974089 3.665604-12.997253 10.106072-25.046523 18.876393-35.31525 8.77032-10.268726 19.663732-18.514823 31.927541-24.168517 12.263809-5.653693 25.608895-8.581697 39.113164-8.581697z"/></g></svg>