<svg height="288pt" stroke-linejoin="round" viewBox="0 0 432 288" width="432pt" xmlns="http://www.w3.org/2000/svg"><g stroke-linejoin="round"><path d="m0 288h432v-288h-432z" fill="none"/><g fill="#fff"><path d="m245.237363 238.090839c23.194886-5.955433 43.435269-20.180611 56.895611-39.986901s19.235598-43.861959 16.234215-67.62036c-3.001384-23.758402-14.5776-45.622071-32.540683-61.458659-17.963084-15.836589-41.105236-24.58128-65.052468-24.58128v98.368818z"/><path d="m220.774056 44.443639c-13.958467-.000003-27.75839 2.97104-40.480184 8.715148s-24.076461 14.130792-33.307363 24.601192-16.128342 22.78666-20.232696 36.128066c-4.104354 13.341405-5.322385 27.404881-3.572927 41.253282 1.749458 13.848402 6.426663 27.167137 13.719942 39.068688 7.293278 11.901551 17.036949 22.115552 28.581725 29.961376 11.544777 7.845823 24.628399 13.145237 38.379016 15.545105s27.855857 1.845672 41.375794-1.625657l-1.223166-4.763919c-12.84394 3.297763-26.243919 3.824248-39.307005 1.544374-13.063085-2.279874-25.492526-7.314317-36.460064-14.76785-10.967538-7.453532-20.224026-17.156834-27.15264-28.463307-6.928614-11.306474-11.371959-23.959272-13.033944-37.115253-1.661986-13.155981-.504856-26.516283 3.39428-39.190618 3.899137-12.674336 10.451704-24.374783 19.221061-34.321663s19.556291-17.91423 31.641996-23.371132c12.085704-5.456903 25.19563-8.279394 38.456174-8.279391z"/></g></g></svg>