<svg height="288pt" stroke-linejoin="round" viewBox="0 0 432 288" width="432pt" xmlns="http://www.w3.org/2000/svg"><g stroke-linejoin="round"><path d="m0 288h432v-288h-432z" fill="none"/><g fill="#fff"><path d="m239.335234 239.548155c24.058979-4.589496 45.559324-17.998329 60.265306-37.584857 14.705981-19.586529 21.583993-43.97412 19.279015-68.358234-2.304977-24.384115-13.63094-47.050924-31.746587-63.534895-18.115648-16.483971-41.747727-25.626533-66.240542-25.626533v98.423939z"/><path d="m220.892407 44.443636c-13.70579.000003-27.261672 2.862856-39.797085 8.404707-12.535413 5.54185-23.776144 13.64147-33.000311 23.7787s-16.229991 22.090318-20.567556 35.091633c-4.337565 13.001316-5.911988 26.766456-4.622158 40.411419s5.415698 26.871267 12.112639 38.829513c6.696941 11.958247 15.81846 22.38685 26.778771 30.616083 10.96031 8.229234 23.519656 14.079082 36.871472 17.173866s27.204032 3.366807 40.667055.798598l-.922141-4.834029c-12.789872 2.439798-25.949477 2.181377-38.633702-.758668s-24.615603-8.497401-35.027898-16.315172c-10.412295-7.817772-19.077738-17.724945-25.439832-29.085279-6.362094-11.360335-10.281669-23.925323-11.507007-36.888038-1.225339-12.962715.270362-26.039598 4.391049-38.390848 4.120688-12.35125 10.77622-23.706683 19.539179-33.337051 8.762958-9.630369 19.441653-17.325008 31.350295-22.589766s24.786731-7.984468 37.807231-7.984471z"/></g></g></svg>