<svg height="288pt" stroke-linejoin="round" viewBox="0 0 432 288" width="432pt" xmlns="http://www.w3.org/2000/svg"><g stroke-linejoin="round"><path d="m0 288h432v-288h-432z" fill="none"/><g fill="#fff"><path d="m233.367133 240.431925c24.817785-3.135217 47.528933-15.620778 63.474116-34.895195 15.945183-19.274418 23.953944-43.92285 22.383236-68.888525s-12.605586-48.415983-30.840763-65.539953-42.332097-26.664616-67.347133-26.664616v98.382031z"/><path d="m221.03657 44.443636c-13.439671.000003-26.737893 2.753935-39.072213 8.091474s-23.445106 13.146334-32.645193 22.943434-16.295816 21.376283-20.848341 34.021412c-4.552524 12.645129-6.466016 26.090031-5.62213 39.503182.843886 13.413152 4.427385 26.512212 10.528869 38.487046 6.101485 11.974835 14.592522 22.573379 24.947967 31.140147 10.355446 8.566768 22.357324 14.921433 35.263356 18.670981s26.444553 4.815052 39.778248 3.130613l-.616527-4.880313c-12.667011 1.600217-25.528606.587988-37.789336-2.974082s-23.662514-9.599003-33.500188-17.737433c-9.837673-8.138429-17.904158-18.207046-23.700568-29.583139-5.796411-11.376092-9.200735-23.820199-10.002426-36.562693-.801692-12.742494 1.016125-25.515151 5.341023-37.528024 4.324899-12.012872 11.065842-23.013096 19.805924-32.320341 8.740083-9.307245 19.29533-16.7256 31.012934-21.796262 11.717603-5.070662 24.350914-7.686898 37.118602-7.6869z"/></g></g></svg>