<svg height="288pt" stroke-linejoin="round" viewBox="0 0 432 288" width="432pt" xmlns="http://www.w3.org/2000/svg"><g stroke-linejoin="round"><path d="m0 288h432v-288h-432z" fill="none"/><g><path d="m227.391538 241.287663c25.533555-1.606433 49.463426-13.097392 66.681805-32.020142 17.21838-18.92275 26.406344-43.827814 25.60273-69.399229-.803613-25.571415-11.537247-49.850418-29.909818-67.654678-18.372571-17.804261-42.976745-27.769978-68.560784-27.769978v98.519216z"/><path d="m221.205471 44.443636c-13.197869 0-26.262172 2.652027-38.41537 7.798241-12.153197 5.146215-23.149303 12.682455-32.333869 22.160191s-16.371692 20.705136-21.133626 33.013983c-4.761934 12.308846-7.002293 25.450006-6.587738 38.641362s3.475632 26.165911 9.001048 38.151465c5.525415 11.985554 13.403333 22.739516 23.164886 31.621847 9.761554 8.882331 21.209166 15.71325 33.661515 20.086204 12.452349 4.372955 25.657395 6.199435 38.829221 5.370734l-.309304-4.91624c-12.513234.787265-25.058028-.947891-36.887759-5.102198-11.829732-4.154306-22.704964-10.643679-31.978439-19.081894-9.273476-8.438214-16.757498-18.654478-22.006643-30.040754-5.249144-11.386277-8.157168-23.712104-8.550995-36.243892-.393827-12.531789 1.734514-25.01589 6.258351-36.709294 4.523838-11.693405 11.351607-22.359434 20.076945-31.363284 8.725337-9.003849 19.171638-16.163277 30.717176-21.052181 11.545537-4.888903 23.956626-7.408329 36.494601-7.408329z"/></g></g></svg>