<svg height="288pt" stroke-linejoin="round" viewBox="0 0 432 288" width="432pt" xmlns="http://www.w3.org/2000/svg"><g stroke-linejoin="round"><path d="m0 288h432v-288h-432z" fill="none"/><g fill="#fff"><path d="m215.408462 241.287663c13.171826.828701 26.376872-.997779 38.829221-5.370734 12.452349-4.372954 23.899961-11.203873 33.661515-20.086204 9.761553-8.882331 17.639471-19.636293 23.164886-31.621847 5.525416-11.985554 8.586493-24.960109 9.001048-38.151465s-1.825804-26.332516-6.587738-38.641362c-4.761934-12.308847-11.94906-23.536247-21.133626-33.013983s-20.180672-17.013976-32.333869-22.160191c-12.153198-5.146214-25.217501-7.798241-38.41537-7.798241v98.519216z"/><path d="m221.594529 44.443636c-25.584039 0-50.188213 9.965717-68.560784 27.769978-18.372571 17.80426-29.106205 42.083263-29.909818 67.654678-.803614 25.571415 8.38435 50.476479 25.60273 69.399229 17.218379 18.92275 41.14825 30.413709 66.681805 32.020142l.309304-4.91624c-24.256877-1.526112-46.990255-12.442523-63.347716-30.419136-16.35746-17.976612-25.086026-41.636423-24.322593-65.929267.763432-24.292844 10.960385-47.357897 28.414327-64.271945 17.453943-16.914047 40.827908-26.381478 65.132745-26.381478z"/></g></g></svg>