<svg height="288pt" stroke-linejoin="round" viewBox="0 0 432 288" width="432pt" xmlns="http://www.w3.org/2000/svg"><g stroke-linejoin="round"><path d="m0 288h432v-288h-432z" fill="none"/><g fill="#fff"><path d="m209.432884 240.431928c13.333696 1.684436 26.872216.618929 39.778248-3.130621 12.906031-3.74955 24.907908-10.104218 35.263352-18.670988s18.846479-19.165316 24.947961-31.140151c6.101482-11.974836 9.684979-25.073896 10.528862-38.487048.843883-13.413151-1.06961-26.858053-5.622137-39.503182-4.552527-12.645128-11.648259-24.224309-20.848348-34.021407-9.200088-9.797099-20.310876-17.605891-32.645197-22.943428s-25.632543-8.091467-39.072215-8.091467v98.382031z"/><path d="m221.763392 44.443636c-25.015036.000005-49.111955 9.540655-67.347128 26.664629-18.235174 17.123973-29.270048 40.574283-30.840751 65.539958s6.438061 49.614107 22.383248 68.888521c15.945187 19.274415 38.656337 31.759971 63.474123 34.895184l.616526-4.880313c-23.576896-2.978452-45.152489-14.839731-60.300416-33.150425-15.147928-18.310694-22.756254-41.726703-21.264086-65.444094 1.492168-23.717392 11.975298-45.995186 29.298713-62.262961s40.215487-25.331393 63.979772-25.331397z"/></g></g></svg>