<svg height="288pt" stroke-linejoin="round" viewBox="0 0 432 288" width="432pt" xmlns="http://www.w3.org/2000/svg"><g stroke-linejoin="round"><path d="m0 288h432v-288h-432z" fill="none"/><g><path d="m203.464784 239.548157c13.463023 2.568207 27.315239 2.296182 40.667054-.798605 13.351816-3.094787 25.91116-8.944637 36.871469-17.173872s20.081826-18.657841 26.778764-30.616089c6.696939-11.958247 10.822804-25.184551 12.112632-38.829515 1.289828-13.644963-.284597-27.410102-4.622165-40.411417s-11.343394-24.954402-20.567563-35.09163-20.464901-18.236846-33.000315-23.778694-26.091297-8.404699-39.797087-8.404699v98.423938z"/><path d="m221.907555 44.443636c-24.492815.000005-48.124893 9.142571-66.240537 25.626546-18.115645 16.483974-29.441603 39.150784-31.746576 63.5349-2.304973 24.384115 4.573044 48.771704 19.279029 68.35823 14.705985 19.586525 36.206332 32.995354 60.265313 37.584845l.922139-4.834029c-22.856031-4.360017-43.281362-17.098404-57.252047-35.705603-13.970686-18.607199-20.504801-41.775409-18.315077-64.940319 2.189724-23.164909 12.949384-44.698379 30.159247-60.358155 17.209862-15.659775 39.660336-24.345213 62.92851-24.345218z"/></g></g></svg>