<svg height="288pt" stroke-linejoin="round" viewBox="0 0 432 288" width="432pt" xmlns="http://www.w3.org/2000/svg"><g stroke-linejoin="round"><path d="m0 288h432v-288h-432z" fill="none"/><g fill="#fff"><path d="m197.56262 238.090834c13.519936 3.471331 27.625177 4.02553 41.375794 1.625664 13.750617-2.399865 26.834239-7.699276 38.379018-15.545097 11.544778-7.845822 21.28845-18.059821 28.581731-29.961371 7.29328-11.901549 11.970488-25.220283 13.719948-39.068684 1.749461-13.848401.531433-27.911876-3.572919-41.253282-4.104351-13.341407-11.001789-25.657668-20.232688-36.12807-9.2309-10.470401-20.585566-18.857088-33.307359-24.601198s-26.521714-8.715155-40.480182-8.715155v98.368817z"/><path d="m222.025981 44.443641c-23.947231-.000005-47.089385 8.744682-65.052471 24.581267s-29.539307 37.700252-32.540694 61.458652c-3.001388 23.7584 2.773863 47.81407 16.234201 67.620362 13.460338 19.806293 33.700719 34.031474 56.895603 39.986912l1.223167-4.763919c-22.03514-5.657666-41.263501-19.171588-54.050822-37.987566-12.787322-18.815977-18.27381-41.668864-15.422492-64.239344s13.848728-43.340963 30.91366-58.38572c17.064932-15.044756 39.049977-23.352208 61.799847-23.352203z"/></g></g></svg>