<svg height="288pt" stroke-linejoin="round" viewBox="0 0 432 288" width="432pt" xmlns="http://www.w3.org/2000/svg"><g stroke-linejoin="round"><path d="m0 288h432v-288h-432z" fill="none"/><g fill="#fff"><path d="m191.729884 236.314035c13.519286 4.392684 27.831638 5.802329 41.948126 4.131533 14.116487-1.670795 27.704313-6.382642 39.82461-13.809968 12.120296-7.427327 22.487327-17.395034 30.384769-29.21439 7.897443-11.819356 13.139113-25.211719 15.362833-39.251728 2.223719-14.040009 1.377063-28.396669-2.481468-42.077989-3.858531-13.681319-10.637971-26.364761-19.869887-37.173947-9.231917-10.809185-20.698666-19.489288-33.607939-25.440544-12.909272-5.951256-26.956731-9.033366-41.171751-9.033366v98.341796z"/><path d="m222.119177 44.443636c-23.409631 0-46.067062 8.358768-63.867886 23.562107-17.800823 15.203338-29.601084 36.27422-33.263158 59.395639-3.662074 23.12142 1.049379 46.8075 13.280876 66.767493 12.231498 19.959992 31.196994 34.911185 53.460875 42.14516l1.519465-4.67643c-21.150688-6.872276-39.167909-21.07591-50.787831-40.037903-11.619923-18.961992-16.095803-41.463769-12.616833-63.429117 3.47897-21.965349 14.689219-41.982686 31.600001-56.425858s38.435342-22.384001 60.674491-22.384001z"/></g></g></svg>