<svg height="288pt" stroke-linejoin="round" viewBox="0 0 432 288" width="432pt" xmlns="http://www.w3.org/2000/svg"><g stroke-linejoin="round"><path d="m0 288h432v-288h-432z" fill="none"/><g fill="#fff"><path d="m185.93612 234.484998c13.477691 5.336196 27.968819 7.631366 42.43584 6.721178 14.467022-.910188 28.556222-5.003479 41.258835-11.986799 12.702614-6.983321 23.708065-16.685931 32.228379-28.413138 8.520315-11.727207 14.347175-25.192284 17.063384-39.431152 2.716209-14.238867 2.255358-28.90339-1.349557-42.943608-3.604915-14.040219-10.265756-27.112854-19.505615-38.281925-9.239859-11.169072-20.832825-20.161498-33.948859-26.333435s-27.434452-9.372483-41.930077-9.372483v98.478432z"/><path d="m222.18845 44.443636c-22.911083 0-45.119222 7.995422-62.772515 22.599496s-29.668484 34.920653-33.961593 57.425918-.600699 45.818229 10.436799 65.895364c11.037499 20.077135 28.742792 35.686452 50.044979 44.120584l1.812616-4.578146c-20.237077-8.012426-37.057106-22.841277-47.542729-41.914555-10.485624-19.073279-13.993414-41.220595-9.91496-62.600596 4.078454-21.380002 15.492885-40.680752 32.263514-54.554622 16.770628-13.87387 37.86836-21.469521 59.633889-21.469521z"/></g></g></svg>