<svg height="288pt" stroke-linejoin="round" viewBox="0 0 432 288" width="432pt" xmlns="http://www.w3.org/2000/svg"><g stroke-linejoin="round"><path d="m0 288h432v-288h-432z" fill="none"/><g fill="#fff"><path d="m180.175744 232.601999c13.393018 6.302275 28.032896 9.514365 42.834183 9.398113 14.801286-.116252 29.388905-3.5579 42.681279-10.069767 13.292373-6.511867 24.952662-15.928938 34.116331-27.552998 9.163669-11.624059 15.598505-25.160545 18.827404-39.605815 3.2289-14.445269 3.170042-29.433267-.172211-43.852731-3.342252-14.419465-9.883204-27.904994-19.137885-39.456725-9.254681-11.55173-20.988572-20.876931-34.331679-27.2842s-27.957306-9.73424-42.75905-9.73424v98.779761z"/><path d="m222.234116 44.443636c-22.449163 0-44.241311 7.652858-61.761321 21.689033-17.520009 14.036175-29.742371 33.634078-34.639503 55.542593-4.897133 21.908516-2.182391 44.845256 7.693877 65.005224 9.876267 20.159968 26.335964 36.363125 46.648575 45.921513l2.102918-4.46893c-19.29698-9.080469-34.933692-24.473468-44.316146-43.625437-9.382454-19.15197-11.961459-40.941873-7.309183-61.754963s16.263519-39.431097 32.907529-52.765464c16.644009-13.334366 37.346549-20.604581 58.673254-20.604581z"/></g></g></svg>