<svg height="288pt" stroke-linejoin="round" viewBox="0 0 432 288" width="432pt" xmlns="http://www.w3.org/2000/svg"><g stroke-linejoin="round"><path d="m0 288h432v-288h-432z" fill="none"/><g><path d="m174.600253 229.329522c13.167927 7.239128 27.818954 11.371143 42.828891 12.078992 15.009937.70785 29.984799-2.027047 43.775547-7.994838 13.790749-5.967791 26.035399-15.011832 35.794407-26.438163 9.759007-11.426331 16.776213-24.93503 20.513181-39.48956 3.736967-14.55453 4.095606-29.772858 1.048398-44.487266s-9.420278-28.538666-18.630199-40.412024c-9.209921-11.873357-21.014947-21.484159-34.509265-28.094957s-28.323725-10.04807-43.350343-10.04807v98.537133z"/><path d="m222.070851 44.443636c-21.863963.000004-43.11818 7.276954-60.394098 20.677534s-29.609951 32.177357-35.047295 53.354425c-5.437343 21.177067-3.674722 43.573248 5.008507 63.639 8.683229 20.065753 23.80275 36.681885 42.962288 47.214927l2.373531-4.317437c-18.201562-10.006391-32.565106-25.791716-40.814174-44.854181s-9.923557-40.338836-4.758081-60.45705 16.882808-37.956153 33.29493-50.686704 36.603628-19.643653 57.374393-19.643657z"/></g></g></svg>