<svg height="288pt" stroke-linejoin="round" viewBox="0 0 432 288" width="432pt" xmlns="http://www.w3.org/2000/svg"><g stroke-linejoin="round"><path d="m0 288h432v-288h-432z" fill="none"/><g><path d="m169.167329 225.768776c12.87896 8.173234 27.485051 13.238182 42.659116 14.792885 15.174066 1.554703 30.503789-.443085 44.772587-5.834816 14.268798-5.391732 27.088952-14.030901 37.44304-25.231893 10.354089-11.200992 17.960765-24.659448 22.216356-39.307291 4.25559-14.647844 5.04446-30.087055 2.304003-45.092363s-8.935775-29.16898-18.094287-41.366973c-9.158513-12.197992-21.03136-22.098854-34.6763-28.916844-13.644939-6.81799-28.691205-10.367845-43.944708-10.367845v98.315017z"/><path d="m221.847117 44.443636c-21.286458.000004-42.007868 6.913194-59.03032 19.694017-17.022452 12.780824-29.442227 30.750749-35.380956 51.192002-5.938729 20.441252-5.081126 42.26861 2.443105 62.180899s21.31563 36.85237 39.288383 48.258222l2.63399-4.150506c-17.074115-10.835559-30.175944-26.928636-37.323964-45.845311-7.148019-18.916675-7.962742-39.652664-2.320949-59.071855 5.641792-19.41919 17.440578-36.490619 33.611908-48.632401 16.171329-12.141782 35.856669-18.709312 56.078804-18.709316z"/></g></g></svg>