<svg height="288pt" stroke-linejoin="round" viewBox="0 0 432 288" width="432pt" xmlns="http://www.w3.org/2000/svg"><g stroke-linejoin="round"><path d="m0 288h432v-288h-432z" fill="none"/><g fill="#fff"><path d="m163.855688 222.140866c12.540363 9.111109 27.061088 15.125793 42.37099 17.550645 15.309902 2.424853 30.978572 1.191704 45.720655-3.598288 14.742082-4.789991 28.143131-13.002162 39.103812-23.962841s19.172855-24.361726 23.962849-39.103808 6.023146-30.410751 3.598296-45.720654c-2.424849-15.309903-8.43953-29.830629-17.550637-42.370993-9.111108-12.540364-21.062499-22.747818-34.873762-29.785008-13.811262-7.03719-29.094117-10.706279-44.594859-10.706279v98.228615z"/><path d="m221.59305 44.44364c-20.740624-.000004-40.957816 6.568956-57.737336 18.759986-16.779519 12.19103-29.274433 29.388798-35.683642 49.114302-6.409208 19.725505-6.409212 40.983118-.00001 60.708624s18.904111 36.923278 35.683626 49.114314l2.886868-3.973431c-15.94054-11.581483-27.810703-27.919367-33.899445-46.658598s-6.088739-38.933963.000009-57.673192c6.088748-18.73923 17.958917-35.077109 33.89946-46.658587 15.940544-11.581479 35.146876-17.821991 54.850469-17.821987z"/></g></g></svg>