<svg height="288pt" stroke-linejoin="round" viewBox="0 0 432 288" width="432pt" xmlns="http://www.w3.org/2000/svg"><g stroke-linejoin="round"><path d="m0 288h432v-288h-432z" fill="none"/><g><path d="m159.069942 218.445376c12.150498 10.051768 26.543706 17.032976 41.959829 20.351982 15.416122 3.319006 31.407006 2.879324 46.617458-1.281784 15.210451-4.161107 29.198294-11.922675 40.778089-22.626926s20.414911-24.040008 25.756591-38.877093 7.034639-30.744177 4.935402-46.373184c-2.099238-15.629007-7.929646-30.525584-16.997109-43.42728s-21.108386-23.433451-35.102326-30.702721-29.534086-11.064734-45.303444-11.064734v98.277574z"/><path d="m221.714432 44.443636c-20.224184 0-39.963709 6.242792-56.510119 17.871804-16.546411 11.629011-29.10666 28.08688-35.957358 47.115425-6.850699 19.028545-7.663503 39.715755-2.326887 59.223142 5.336615 19.507386 16.566874 36.899988 32.149874 49.791369l3.132225-3.786208c-14.803851-12.246813-25.472596-28.769784-30.542381-47.301801-5.069785-18.532018-4.297621-38.184867 2.210542-56.261985 6.508164-18.077118 18.440401-33.712093 34.159491-44.759654s34.471638-16.978213 53.684613-16.978213z"/></g></g></svg>