<svg height="288pt" stroke-linejoin="round" viewBox="0 0 432 288" width="432pt" xmlns="http://www.w3.org/2000/svg"><g stroke-linejoin="round"><path d="m0 288h432v-288h-432z" fill="none"/><g><path d="m154.51088 214.351737c11.684896 10.972847 25.878981 18.921918 41.340213 23.151633 15.461231 4.229714 31.725083 4.612994 47.368398 1.116299 15.643314-3.496695 30.196095-10.768307 42.384911-21.178539s21.64746-23.646313 27.548259-38.550029c5.900798-14.903715 8.066465-31.02729 6.307496-46.959841-1.75897-15.932552-7.38973-31.195393-16.399563-44.45296-9.009832-13.257567-21.128043-24.111541-35.294234-31.612154-14.166191-7.500612-29.954748-11.42251-45.984101-11.42251v98.271363z"/><path d="m221.782259 44.443636c-19.696763 0-38.945888 5.921804-55.236698 16.993027-16.290811 11.071224-28.882841 26.788646-36.133703 45.102233-7.250863 18.313587-8.830984 38.390932-4.534269 57.613334s14.274969 36.716144 28.633291 50.199507l3.363569-3.581837c-13.640406-12.809195-23.119747-29.42825-27.201626-47.689531-4.08188-18.261282-2.580765-37.33476 4.307555-54.732668 6.888319-17.397908 18.850747-32.329459 34.327017-42.847121s33.762939-16.143376 52.474864-16.143376z"/></g></g></svg>