<svg height="288pt" stroke-linejoin="round" viewBox="0 0 432 288" width="432pt" xmlns="http://www.w3.org/2000/svg"><g stroke-linejoin="round"><path d="m0 288h432v-288h-432z" fill="none"/><g fill="#fff"><path d="m150.234772 209.812807c11.139899 11.862787 25.05668 20.771497 40.493616 25.921649 15.436937 5.150151 31.914942 6.381908 47.946006 3.584039 16.031063-2.797869 31.117659-9.538531 43.897424-19.613286 12.779764-10.074755 22.856077-23.17093 29.319017-38.105905 6.462941-14.934975 9.111931-31.245239 7.707759-47.457931-1.404171-16.212692-6.817925-31.824647-15.752385-45.426062-8.93446-13.601416-21.112344-24.770169-35.433953-32.49769s-30.342471-11.773985-46.615856-11.773985v98.168326z"/><path d="m221.7964 44.443636c-19.151107 0-37.890016 5.604123-53.896652 16.118517-16.006635 10.514395-28.591963 25.48645-36.197784 43.062467-7.605821 17.576016-9.90473 36.999403-6.612097 55.865336s12.03507 36.362296 25.144905 50.322851l3.578082-3.360042c-12.454344-13.262527-20.759659-29.884072-23.88766-47.806709-3.128002-17.922636-.944038-36.374853 6.281492-53.072069s19.181591-30.920669 34.387895-40.909343c15.206304-9.988675 33.008268-15.312591 51.201819-15.312591z"/></g></g></svg>