<svg height="288pt" stroke-linejoin="round" viewBox="0 0 432 288" width="432pt" xmlns="http://www.w3.org/2000/svg"><g stroke-linejoin="round"><path d="m0 288h432v-288h-432z" fill="none"/><g fill="#fff"><path d="m146.103573 205.217607c10.541409 12.742372 24.133201 22.617385 39.509393 28.705249 15.376192 6.087863 32.044093 8.193508 48.451203 6.120806 16.407111-2.072701 32.027706-8.257333 45.406835-17.97784 13.379129-9.720508 24.088092-22.665421 31.129422-37.629012 7.041331-14.96359 10.189407-31.466386 9.151007-47.971267s-6.230002-32.482989-15.091246-46.446073c-8.861243-13.963085-21.108191-25.463734-35.600125-33.430742s-30.764496-12.145092-47.30201-12.145092v98.187131z"/><path d="m221.758052 44.443636c-18.63024 0-36.881266 5.302414-52.611297 15.284996-15.730032 9.982582-28.298707 24.238947-36.231077 41.096092-7.93237 16.857146-10.905511 35.628826-8.570521 54.11216 2.334989 18.483335 9.883053 35.925877 21.758416 50.280723l3.782724-3.129342c-11.281595-13.637103-18.452255-30.207518-20.670495-47.766686s.606244-35.392264 8.141995-51.406553c7.535751-16.014288 19.475992-29.557834 34.419522-39.041287 14.943531-9.483453 32.282005-14.520746 49.980733-14.520746z"/></g></g></svg>