<svg height="288pt" stroke-linejoin="round" viewBox="0 0 432 288" width="432pt" xmlns="http://www.w3.org/2000/svg"><g stroke-linejoin="round"><path d="m0 288h432v-288h-432z" fill="none"/><g fill="#fff"><path d="m142.118448 200.56735c9.888164 13.609885 23.105577 24.457133 38.38304 31.500138 15.277462 7.043004 32.109798 10.048876 48.880685 8.728976 16.770887-1.319899 32.925766-6.921925 46.913366-16.268143 13.987601-9.346218 25.3454-22.127579 32.982766-37.116756 7.637365-14.989177 11.301755-31.690526 10.641296-48.500302-.660459-16.809775-5.623927-33.172134-14.413788-47.515883-8.789861-14.343748-21.115463-26.194585-35.793241-34.414536-14.677779-8.21995-31.222388-12.537208-48.045134-12.537208v98.327971z"/><path d="m221.66742 44.443636c-18.132232.000004-35.915953 5.015535-51.37622 14.489603s-28.002774 23.04248-36.234633 39.198418c-8.231858 16.155938-11.836627 34.278354-10.413986 52.354689 1.422642 18.076336 7.818006 35.411722 18.475867 50.081004l3.977449-2.889787c-10.124967-13.935818-16.200564-30.404435-17.552073-47.576954s2.073022-34.388813 9.893287-49.736954 19.735647-28.238133 34.422901-37.238498c14.687253-9.000364 31.581789-13.765119 48.807409-13.765122z"/></g></g></svg>