<svg height="288pt" stroke-linejoin="round" viewBox="0 0 432 288" width="432pt" xmlns="http://www.w3.org/2000/svg"><g stroke-linejoin="round"><path d="m0 288h432v-288h-432z" fill="none"/><g fill="#fff"><path d="m138.280811 195.863325c9.178817 14.463507 21.970628 26.288139 37.109708 34.303872 15.139079 8.015732 32.109066 11.949167 49.230812 11.411096 17.121745-.53807 33.811265-5.529293 48.417161-14.479795 14.605895-8.950503 26.629994-21.555004 34.882531-36.56631s12.452038-31.917417 12.182969-49.045501c-.269068-17.128085-4.997529-33.893945-13.717508-48.638626-8.71998-14.744682-21.13406-26.965279-36.01389-35.452584-14.87983-8.487306-31.717892-12.951837-48.84809-12.951837v98.591651z"/><path d="m221.524523 44.44364c-17.655263-.000004-34.990609 4.742407-50.187237 13.729664s-27.703806 21.893659-36.209296 37.365081c-8.50549 15.471423-12.701051 32.947177-12.146489 50.593728.554563 17.64655 5.83915 34.82438 15.29931 49.731212l4.162185-2.641401c-8.987152-14.161491-14.00751-30.48043-14.534344-47.244653s3.458948-33.366189 11.539164-48.06404c8.080215-14.697852 19.962034-26.958934 34.398831-35.496828 14.436796-8.537894 30.905376-13.043184 47.677875-13.043181z"/></g></g></svg>