<svg height="288pt" stroke-linejoin="round" viewBox="0 0 432 288" width="432pt" xmlns="http://www.w3.org/2000/svg"><g stroke-linejoin="round"><path d="m0 288h432v-288h-432z" fill="none"/><g><path d="m134.96528 190.701158c8.388671 15.25894 20.667616 28.029802 35.585452 37.011072 14.917836 8.981269 31.949969 13.857115 49.360604 14.130624 17.410636.27351 34.587519-4.064935 49.780104-12.57319 15.192584-8.508255 27.866615-20.887123 36.730444-35.875037 8.863828-14.987914 13.605754-32.057816 13.742513-49.470063s-4.336458-34.554526-12.963772-49.679819-21.105341-27.701709-36.162409-36.447551c-15.057068-8.745841-32.163687-13.353554-49.576471-13.353554v98.705695z"/><path d="m221.461764 44.44364c-17.150013-.000004-34.007553 4.469689-48.904597 12.966809-14.897043 8.49712-27.325486 20.731851-36.055555 35.493587s-13.464002 31.546988-13.733385 48.694885c-.269383 17.147898 3.934973 34.073565 12.197053 49.102237l4.324823-2.377591c-7.848976-14.277239-11.843114-30.356622-11.5872-46.647125.255914-16.290502 4.75315-32.236492 13.046716-46.260141 8.293565-14.023649 20.100586-25.646643 34.252777-33.718907 14.152191-8.072265 30.166854-12.318473 46.459367-12.31847z"/></g></g></svg>