<svg height="288pt" stroke-linejoin="round" viewBox="0 0 432 288" width="432pt" xmlns="http://www.w3.org/2000/svg"><g stroke-linejoin="round"><path d="m0 288h432v-288h-432z" fill="none"/><g fill="#fff"><path d="m132.553558 184.712263c7.501131 15.940718 19.148208 29.577694 33.719233 39.480153s31.537938 15.711533 49.120594 16.81774c17.582655 1.106208 35.14385-2.53054 50.841085-10.528681 15.697236-7.99814 28.961639-20.067818 38.401525-34.942697 9.439885-14.874878 14.713149-32.015888 15.266525-49.624614.553377-17.608726-3.633187-35.047022-12.120443-50.485284-8.487257-15.438263-20.967624-28.317003-36.131677-37.284999s-32.462241-13.700245-50.07966-13.700245v98.380326z"/><path d="m221.57074 44.443636c-16.570054 0-32.874634 4.186305-47.395083 12.168989-14.520448 7.982684-26.791493 19.505962-35.670172 33.496521-8.878679 13.990558-14.080497 30.000105-15.120939 46.537461-1.040443 16.537356 2.113827 33.072623 9.169012 48.065656l4.450859-2.094415c-6.702426-14.243381-9.698982-29.951885-8.710562-45.662373.988421-15.710489 5.930148-30.919558 14.364893-44.210589 8.434745-13.29103 20.092237-24.238144 33.886664-31.821694 13.794426-7.58355 29.283777-11.560539 45.025328-11.560539z"/></g></g></svg>