<svg height="288pt" stroke-linejoin="round" viewBox="0 0 432 288" width="432pt" xmlns="http://www.w3.org/2000/svg"><g stroke-linejoin="round"><path d="m0 288h432v-288h-432z" fill="none"/><g fill="#fff"><path d="m130.304816 178.730531c6.566773 16.585773 17.532404 31.071794 31.712981 41.894068 14.180578 10.822275 31.046711 17.576784 48.777437 19.534275 17.730725 1.95749 35.664118-.955117 51.863987-8.423359s30.06144-19.213315 40.088137-33.967153c10.026698-14.753837 15.844205-31.965649 16.824432-49.77715.980226-17.8115-2.913424-35.557749-11.260568-51.322761-8.347143-15.765011-20.836166-28.960244-36.118681-38.161067-15.282515-9.200822-32.787994-14.063748-50.626447-14.063748v98.153997z"/><path d="m221.566094 44.443636c-16.010209 0-31.779909 3.917214-45.929182 11.408868-14.149272 7.491655-26.25301 18.332667-35.252082 31.5744-8.999073 13.241733-14.623107 28.486346-16.379977 44.399869-1.756869 15.913523.406212 32.017842 6.299963 46.903758l4.563064-1.806645c-5.599064-14.14162-7.65399-29.440723-5.984964-44.55857 1.669025-15.117847 7.011858-29.600229 15.560977-42.179876 8.549119-12.579646 20.047669-22.878608 33.489478-29.995679 13.441809-7.117072 28.423024-10.838425 43.632723-10.838425z"/></g></g></svg>