<svg height="288pt" stroke-linejoin="round" viewBox="0 0 432 288" width="432pt" xmlns="http://www.w3.org/2000/svg"><g stroke-linejoin="round"><path d="m0 288h432v-288h-432z" fill="none"/><g fill="#fff"><path d="m128.220282 172.76121c5.585955 17.191799 15.819943 32.508042 29.565443 44.247807 13.745501 11.739765 30.474125 19.451765 48.3281 22.279556 17.853976 2.827791 36.146982.66267 52.847516-6.254919 16.700533-6.917588 31.166612-18.321726 41.791728-32.945945 10.625116-14.624218 17.00083-31.90635 18.419098-49.927154 1.418267-18.020803-2.175432-36.087545-10.382004-52.193848-8.206572-16.106304-20.71055-29.633031-36.123323-39.077991-15.412774-9.444959-33.141863-14.44508-51.218391-14.44508v98.025899z"/><path d="m221.448449 44.443636c-15.468753 0-30.720068 3.661517-44.502828 10.684185-13.78276 7.022667-25.709487 17.209055-34.801792 29.723539-9.092304 12.514485-15.094573 27.005244-17.514418 42.283551-2.419845 15.278308-1.189238 30.914641 3.590871 45.626299l4.661408-1.514583c-4.541103-13.976076-5.71018-28.830593-3.411327-43.344985s8.001008-28.280613 16.638697-40.169373 19.96808-21.565829 33.061702-28.237363 27.582371-10.149975 42.277687-10.149975z"/></g></g></svg>