<svg height="288pt" stroke-linejoin="round" viewBox="0 0 432 288" width="432pt" xmlns="http://www.w3.org/2000/svg"><g stroke-linejoin="round"><path d="m0 288h432v-288h-432z" fill="none"/><g><path d="m126.30121 166.809784c4.559073 17.756408 14.010575 33.882215 27.275313 46.536143 13.264739 12.653928 29.817873 21.335304 47.769331 25.05287 17.951459 3.717567 36.590964 2.324232 53.790219-4.020909 17.199254-6.345142 32.277741-17.391035 43.513769-31.876436 11.236027-14.485402 18.185024-31.837174 20.053538-50.074055s-1.417385-36.637299-9.482505-53.100257c-8.065121-16.462959-20.590355-30.337074-36.145544-40.03817s-33.524867-14.845334-51.85722-14.845334v97.995616z"/><path d="m221.218092 44.443636c-14.944039.000003-29.691949 3.418388-43.112107 9.992858-13.420158 6.574471-25.160306 16.132458-34.319611 27.940567-9.159305 11.808108-15.49735 25.556395-18.527809 40.18994-3.030459 14.633544-2.673788 29.768239 1.042645 44.242783l4.745845-1.218527c-3.530611-13.750816-3.869449-28.128777-.990513-42.030644s8.900079-26.962739 17.601418-38.180443c8.70134-11.217703 19.854481-20.297791 32.603632-26.543538 12.74915-6.245747 26.759664-9.493212 40.956501-9.493215z"/></g></g></svg>