<svg height="288pt" stroke-linejoin="round" viewBox="0 0 432 288" width="432pt" xmlns="http://www.w3.org/2000/svg"><g stroke-linejoin="round"><path d="m0 288h432v-288h-432z" fill="none"/><g fill="#fff"><path d="m124.778338 160.881949c3.486547 18.277136 12.104041 35.189928 24.841209 48.753639 12.737169 13.563711 29.075487 23.226169 47.097634 27.853472 18.022147 4.627304 36.994449 4.031077 54.690484-1.718711s33.395406-16.419067 45.255771-30.755783c11.860366-14.336717 19.398897-31.75723 21.730938-50.217222 2.33204-18.459992-.637346-37.207965-8.559698-54.043822-7.922351-16.835856-20.475154-31.074216-36.18532-41.044191-15.710165-9.969975-33.938142-15.265692-52.544854-15.265692v98.063129z"/><path d="m221.104521 44.443639c-14.434494-.000003-28.69253 3.187043-41.753252 9.332949-13.060722 6.145907-24.6048 15.100408-33.805695 26.222375-9.200894 11.121968-15.833647 24.139472-19.423363 38.120479-3.589715 13.981008-4.048625 28.583687-1.343873 42.762507l4.816308-.918759c-2.569514-13.469879-2.13355-27.342424 1.27668-40.624381s9.711345-25.648587 18.452195-36.214456c8.74085-10.565868 19.707724-19.072645 32.11541-24.911256s25.952819-8.866304 39.665589-8.866301z"/></g></g></svg>