<svg height="288pt" stroke-linejoin="round" viewBox="0 0 432 288" width="432pt" xmlns="http://www.w3.org/2000/svg"><g stroke-linejoin="round"><path d="m0 288h432v-288h-432z" fill="none"/><g><path d="m123.685144 154.856828c2.366132 18.729887 10.088529 36.384758 22.236171 50.836126 12.147641 14.451369 28.211912 25.094163 46.256091 30.645279 18.044178 5.551116 37.312762 5.778131 55.482715.653675 18.169954-5.124455 34.480509-15.385822 46.965252-29.546982 12.484743-14.161159 20.620944-31.62919 23.427695-50.298133 2.80675-18.668942.166534-37.757135-7.602343-54.963291-7.768876-17.206156-20.341134-31.809861-36.201052-42.050481-15.859917-10.240619-34.343446-15.689382-53.222197-15.689382v98.116005z"/><path d="m221.027494 44.443639c-13.922594-.000003-27.687049 2.963405-40.376148 8.69275-12.689098 5.729345-24.014583 14.094475-33.221761 24.537965-9.207178 10.443491-16.086891 22.728098-20.180697 36.035215s-5.308706 27.334449-3.563744 41.147259l4.867116-.614859c-1.657714-13.12217-.503558-26.448135 3.385557-39.089896 3.889116-12.641762 10.424843-24.312138 19.171662-34.233454s19.50603-17.86819 31.560674-23.311068c12.054643-5.442877 25.130876-8.258114 38.35734-8.258112z"/></g></g></svg>