<svg height="288pt" stroke-linejoin="round" viewBox="0 0 432 288" width="432pt" xmlns="http://www.w3.org/2000/svg"><g stroke-linejoin="round"><path d="m0 288h432v-288h-432z" fill="none"/><g><path d="m123.04424 148.5536c1.199944 19.072574 7.955202 37.383506 19.429402 52.665707s27.173414 26.877821 45.153912 33.3512c17.980498 6.473378 37.468277 7.545857 56.050542 3.08465 18.582265-4.461206 35.459109-14.264057 48.540999-28.194853 13.081889-13.930797 21.805691-31.389864 25.091306-50.215583 3.285614-18.825718.991605-38.207701-6.598003-55.746252-7.589609-17.538551-20.148109-32.478692-36.120624-42.970674-15.972516-10.491982-34.671481-16.084159-53.781765-16.084159v97.959069z"/><path d="m220.810009 44.443636c-13.381892 0-26.622943 2.74209-38.904236 8.05668s-23.344314 13.089811-32.504849 22.84479c-9.160536 9.754979-16.225762 21.284379-20.758717 33.875144-4.532955 12.590764-6.438222 25.977864-5.597967 39.33335l4.888289-.307545c-.798243-12.687712 1.011761-25.405456 5.318068-37.366683 4.306307-11.961226 11.018272-22.914156 19.720781-32.181386s19.212378-16.65369 30.879607-21.702551c11.667229-5.04886 24.246227-7.653845 36.959024-7.653845z"/></g></g></svg>