<svg height="288pt" stroke-linejoin="round" viewBox="0 0 432 288" width="432pt" xmlns="http://www.w3.org/2000/svg"><g stroke-linejoin="round"><path d="m0 288h432v-288h-432z" fill="none"/><g><path d="m122.563636 142.332151c0 19.358202 5.742349 38.288189 16.49719 54.383945 10.754841 16.095757 26.046366 28.645187 43.931012 36.053251 17.884647 7.408063 37.571176 9.347017 56.557415 5.570419 18.98624-3.776598 36.432215-13.101666 50.120531-26.789982s23.013384-31.134291 26.789982-50.120531c3.776598-18.986239 1.837644-38.672768-5.570419-56.557415-7.408064-17.884646-19.957494-33.176171-36.053251-43.931012-16.095756-10.754841-35.025743-16.49719-54.383945-16.49719v97.888515z"/><path d="m220.452151 44.443636c-25.951691 0-50.867015 10.320266-69.217632 28.670883s-28.670883 43.265941-28.670883 69.217632h4.894426c0-24.654107 9.804252-48.323665 27.237338-65.756751s41.102644-27.237338 65.756751-27.237338z"/></g></g></svg>