<svg height="288pt" stroke-linejoin="round" viewBox="0 0 432 288" width="432pt" xmlns="http://www.w3.org/2000/svg"><g stroke-linejoin="round"><path d="m0 288h432v-288h-432z" fill="none"/><g fill="#fff"><path d="m122.936543 136.886037c-.617283 9.811435.235718 19.660253 2.530681 29.21946 2.294963 9.559206 6.006205 18.721821 11.010506 27.183632 5.004302 8.461811 11.245659 16.12812 18.51685 22.744394 7.27119 6.616273 15.49084 12.108467 24.386044 16.294232 8.895203 4.185764 18.366414 7.018256 28.099171 8.403433 9.732758 1.385176 19.618142 1.307534 29.327941-.230347 9.709799-1.537882 19.13535-4.518793 27.963709-8.843761 8.828359-4.324969 16.960727-9.945595 24.127095-16.675264 7.166369-6.729668 13.286539-14.493067 18.15731-23.032438 4.870771-8.539372 8.437635-17.759151 10.582164-27.353226 2.14453-9.594075 2.842726-19.455077 2.071407-29.255605-.771318-9.800527-3.003519-19.430902-6.62249-28.57138-3.618971-9.140477-8.584212-17.688765-14.730869-25.361046-6.146656-7.672281-13.40594-14.382694-21.536831-19.908441-8.130891-5.525748-17.042395-9.804992-26.438637-12.695653s-19.172066-4.360391-29.002899-4.360391v98.635788z"/><path d="m221.377686 44.443636c-25.079557.000003-49.23863 9.565258-67.520839 26.733398s-29.345547 40.678935-30.920304 65.709003l4.922057.30967c1.496019-23.778566 12.00619-46.11382 29.374289-62.423553s40.319218-25.396726 64.144798-25.396728z"/></g></g></svg>