<svg height="288pt" stroke-linejoin="round" viewBox="0 0 432 288" width="432pt" xmlns="http://www.w3.org/2000/svg"><g stroke-linejoin="round"><path d="m0 288h432v-288h-432z" fill="none"/><path d="m123.612134 130.679619c-1.24786 9.877837-.992291 19.887952.757999 29.689244 1.75029 9.801291 4.975191 19.281151 9.564812 28.116545 4.589621 8.835395 10.491232 16.924815 17.503732 23.992607 7.012499 7.067791 15.05532 13.032752 23.854397 17.691623 8.799077 4.65887 18.253317 7.958123 28.040559 9.785336 9.787243 1.827212 19.795043 2.16139 29.682376.991146s19.540603-3.831464 28.630869-7.892978 17.513088-9.476659 24.981453-16.060909 13.896468-14.261959 19.065267-22.771503 9.018909-17.753157 11.419136-27.415855c2.400226-9.662699 3.322992-19.633467 2.736853-29.572545-.586138-9.939078-2.674447-19.732274-6.193765-29.045879-3.519318-9.313604-8.429212-18.040612-14.562373-25.883644-6.133162-7.843032-13.419127-14.71198-21.609621-20.372778-8.190493-5.660799-17.191415-10.048411-26.696051-13.013325-9.504636-2.964915-19.403788-4.473068-29.360134-4.473068v98.592943z" fill="#fff"/></g></svg>