<svg height="288pt" stroke-linejoin="round" viewBox="0 0 432 288" width="432pt" xmlns="http://www.w3.org/2000/svg"><g stroke-linejoin="round"><path d="m0 288h432v-288h-432z" fill="none"/><g fill="#fff"><path d="m124.644754 124.561886c-1.889948 9.907467-2.24844 20.046538-1.062942 30.062745 1.185498 10.016206 3.901007 19.791445 8.051591 28.983966s9.687303 17.693934 16.416589 25.207023 14.571793 13.949267 23.25334 19.083518 18.099769 8.906037 27.925398 11.183494 19.942809 3.033732 29.997836 2.242383c10.055026-.791349 19.92934-3.12099 29.277725-6.907477s18.060615-8.985173 25.832103-15.414308c7.771487-6.429135 14.510598-14.012912 19.981727-22.486196s9.609766-17.736165 12.271221-27.464806c2.661454-9.728641 3.814344-19.80833 3.418364-29.886673-.395979-10.078343-2.33616-20.036505-5.752711-29.52634-3.416552-9.489835-8.269189-18.399448-14.388259-26.41735-6.119071-8.017903-13.432425-15.049557-21.68438-20.849128s-17.345213-10.298677-26.961865-13.340024c-9.616652-3.041348-19.643308-4.589077-29.729427-4.589077v98.592654z"/><path d="m221.491046 44.443636c-22.937657.000005-45.171553 8.004704-62.845318 22.62572-17.673766 14.621016-29.70289 34.961162-34.000974 57.49253l4.842316.923721c4.08318-21.404801 15.510847-40.727939 32.300924-54.617904 16.790078-13.889965 37.912279-21.49443 59.703053-21.494434z"/></g></g></svg>