<svg height="288pt" stroke-linejoin="round" viewBox="0 0 432 288" width="432pt" xmlns="http://www.w3.org/2000/svg"><g stroke-linejoin="round"><path d="m0 288h432v-288h-432z" fill="none"/><path d="m125.950849 118.578172c-2.54269 9.903121-3.530794 20.141545-2.928881 30.348151.601914 10.206605 2.786564 20.257922 6.475615 29.79354 3.689051 9.535617 8.837876 18.440182 15.261853 26.394401 6.423977 7.95422 14.045395 14.861872 22.590972 20.475268s17.911936 9.86463 27.763226 12.601265c9.85129 2.736636 20.068341 3.925567 30.284796 3.524162 10.216456-.401405 20.308729-2.38829 29.914937-5.88941 9.606209-3.501121 18.610148-8.474125 26.68896-14.740693 8.078813-6.266569 15.13477-13.750895 20.914864-22.184613 5.780095-8.433718 10.214406-17.714805 13.14393-27.510466s4.318824-19.987399 4.118083-30.209766c-.200741-10.222368-1.989095-20.351705-5.300935-30.024802-3.311841-9.673096-8.107106-18.772938-14.21385-26.973229-6.106744-8.20029-13.451094-15.401832-21.769702-21.346397s-17.510843-10.560243-27.247099-13.681527-19.898752-4.710418-30.123091-4.710418v98.673697z" fill="#fff"/></g></svg>