<svg height="288pt" stroke-linejoin="round" viewBox="0 0 432 288" width="432pt" xmlns="http://www.w3.org/2000/svg"><g stroke-linejoin="round"><path d="m0 288h432v-288h-432z" fill="none"/><path d="m127.401036 112.737878c-3.204926 9.863744-4.837397 20.170761-4.837398 30.542116s1.632469 20.678371 4.837394 30.542116c3.204924 9.863745 7.942539 19.161839 14.038668 27.552442s13.475138 15.769612 21.86574 21.865742 17.688695 10.833746 27.55244 14.038672c9.863744 3.204925 20.170761 4.837397 30.542116 4.837397 10.371354.000001 20.678371-1.63247 30.542116-4.837394 9.863745-3.204925 19.161839-7.94254 27.552441-14.038669 8.390603-6.096129 15.769612-13.475138 21.865742-21.86574 6.09613-8.390603 10.833746-17.688696 14.038671-27.552441s4.837396-20.170761 4.837397-30.542116c0-10.371355-1.632471-20.678371-4.837396-30.542116-3.204924-9.863745-7.94254-19.161839-14.038669-27.552441-6.096129-8.390603-13.475138-15.769612-21.865741-21.865742-8.390602-6.096129-17.688696-10.833745-27.552441-14.03867-9.863744-3.204925-20.170761-4.837396-30.542116-4.837396v98.836363z"/></g></svg>