<?xml version="1.0" encoding="utf-8" standalone="no"?>
<!DOCTYPE svg PUBLIC "-//W3C//DTD SVG 1.1//EN"
  "http://www.w3.org/Graphics/SVG/1.1/DTD/svg11.dtd">
<!-- Created with matplotlib (http://matplotlib.org/) -->
<svg height="288pt" version="1.1" viewBox="0 0 432 288" width="432pt" xmlns="http://www.w3.org/2000/svg" xmlns:xlink="http://www.w3.org/1999/xlink">
 <defs>
  <style type="text/css">
*{stroke-linecap:butt;stroke-linejoin:round;}
  </style>
 </defs>
 <g id="figure_1">
  <g id="patch_1">
   <path d="M 0 288 
L 432 288 
L 432 0 
L 0 0 
z
" style="fill:none;"/>
  </g>
  <g id="axes_1">
   <g id="patch_2">
    <path d="M 127.401036 112.737878 
C 124.19611 122.601622 122.563639 132.908639 122.563638 143.279994 
C 122.563637 153.651349 124.196107 163.958365 127.401032 173.82211 
C 130.605956 183.685855 135.343571 192.983949 141.4397 201.374552 
C 147.535829 209.765155 154.914838 217.144164 163.30544 223.240294 
C 171.696042 229.336424 180.994135 234.07404 190.85788 237.278966 
C 200.721624 240.483891 211.028641 242.116363 221.399996 242.116363 
C 231.77135 242.116364 242.078367 240.483893 251.942112 237.278969 
C 261.805857 234.074044 271.103951 229.336429 279.494553 223.2403 
C 287.885156 217.144171 295.264165 209.765162 301.360295 201.37456 
C 307.456425 192.983957 312.194041 183.685864 315.398966 173.822119 
C 318.603891 163.958374 320.236362 153.651358 320.236363 143.280003 
C 320.236363 132.908648 318.603892 122.601632 315.398967 112.737887 
C 312.194043 102.874142 307.456427 93.576048 301.360298 85.185446 
C 295.264169 76.794843 287.88516 69.415834 279.494557 63.319704 
C 271.103955 57.223575 261.805861 52.485959 251.942116 49.281034 
C 242.078372 46.076109 231.771355 44.443638 221.4 44.443638 
L 221.4 143.280001 
L 127.401036 112.737878 
z
"/>
   </g>
   <g id="patch_3">
    <path d="M 221.400009 44.443638 
C 200.531062 44.443636 180.188785 51.053241 163.305451 63.319699 
C 146.422117 75.586157 133.849897 92.89033 127.401036 112.737878 
L 132.100984 114.264984 
C 138.227402 95.409814 150.171011 78.970849 166.210178 67.317714 
C 182.249346 55.664579 201.574509 49.385455 221.400009 49.385456 
z
"/>
   </g>
   <g id="matplotlib.axis_1"/>
   <g id="matplotlib.axis_2"/>
  </g>
 </g>
</svg>
