<svg height="288pt" stroke-linejoin="round" viewBox="0 0 432 288" width="432pt" xmlns="http://www.w3.org/2000/svg"><g stroke-linejoin="round"><path d="m0 288h432v-288h-432z" fill="none"/><path d="m129.789872 106.789903c-3.859311 9.747509-6.140542 20.048107-6.757726 30.513636-.617185 10.465529.437527 20.962858 3.124391 31.096415s6.9717 19.774434 12.693043 28.559333 12.806412 16.602068 20.988219 23.156932 17.356274 11.764039 27.177676 15.431227c9.821402 3.667189 20.164804 5.74574 30.640433 6.157329s20.950227-.849021 31.029077-3.734326c10.078851-2.885306 19.633742-7.358602 28.304617-13.251322 8.670874-5.89272 16.34743-13.129903 22.740392-21.43883 6.392961-8.308926 11.421003-17.583899 14.894654-27.475409 3.473651-9.891509 5.348723-20.273727 5.554557-30.755418s-1.260188-20.929519-4.342822-30.949778c-3.082634-10.020258-7.742666-19.48548-13.804492-28.038988-6.061825-8.553507-13.448332-16.086491-21.881175-22.315084-8.432842-6.228594-17.804746-11.073566-27.76255-14.35234-9.957803-3.278775-20.374834-4.949644-30.858546-4.949644v98.668605z" fill="#fff"/></g></svg>