<svg height="288pt" stroke-linejoin="round" viewBox="0 0 432 288" width="432pt" xmlns="http://www.w3.org/2000/svg"><g stroke-linejoin="round"><path d="m0 288h432v-288h-432z" fill="none"/><g fill="#fff"><path d="m132.320456 101.045915c-4.514681 9.594186-7.451872 19.854284-8.69816 30.384122-1.246288 10.529839-.785423 21.192123 1.364799 31.575152s5.961766 20.351421 11.287457 29.520268c5.32569 9.168847 12.096088 17.4186 20.049768 24.430712s16.986937 12.695154 26.750972 16.829688c9.764034 4.134534 20.131535 6.666651 30.702185 7.498579s21.20662-.047181 31.497227-2.603381c10.290606-2.5562 20.101672-6.756163 29.054365-12.437715 8.952693-5.681551 16.930281-12.770613 23.624727-20.993455s12.018463-17.47225 15.766475-27.391078c3.748013-9.918828 5.871151-20.377746 6.287436-30.972908s-.879712-21.188418-3.837948-31.370735c-2.958237-10.182317-7.540142-19.82093-13.568794-28.543664-6.028653-8.722734-13.425447-16.415856-21.904773-22.782314-8.479325-6.366457-17.930622-11.323239-27.988949-14.678951s-20.592536-5.066599-31.195873-5.066599v98.572333z"/><path d="m221.51137 44.443636c-18.703328 0-37.025956 5.323216-52.817698 15.344961-15.791743 10.021745-28.409727 24.33404-36.373216 41.257318l4.459545 2.098503c7.565315-16.077115 19.5524-29.673795 34.554556-39.194452 15.002155-9.520658 32.408651-14.577713 50.176813-14.577713z"/></g></g></svg>