<svg height="288pt" stroke-linejoin="round" viewBox="0 0 432 288" width="432pt" xmlns="http://www.w3.org/2000/svg"><g stroke-linejoin="round"><path d="m0 288h432v-288h-432z" fill="none"/><path d="m135.062011 95.515416c-5.169449 9.403195-8.76854 19.587899-10.654918 30.151272-1.886378 10.563374-2.034839 21.364282-.439511 31.975512s4.91313 20.891009 9.822177 30.432735c4.909046 9.541726 11.343748 18.217916 19.049591 25.685396s16.579872 13.62648 26.271087 18.23339c9.691216 4.60691 20.070137 7.600178 30.726242 8.86141 10.656105 1.261233 21.44702.773578 31.945928-1.443674s20.565536-6.134479 29.801714-11.59674c9.236177-5.462261 17.518504-12.396577 24.519383-20.528671 7.00088-8.132095 12.626777-17.353317 16.655167-27.298937 4.02839-9.945619 6.405452-20.482756 7.037164-31.194628.631711-10.711873-.490367-21.455364-3.321852-31.805532-2.831486-10.350167-7.334549-20.168725-13.331077-29.067316-5.996528-8.898592-13.406404-16.758324-21.936541-23.268319-8.530138-6.509995-18.066568-11.583274-28.232093-15.019171-10.165524-3.435897-20.824324-5.188507-31.554808-5.188507v98.54729z"/></g></svg>