<svg height="288pt" stroke-linejoin="round" viewBox="0 0 432 288" width="432pt" xmlns="http://www.w3.org/2000/svg"><g stroke-linejoin="round"><path d="m0 288h432v-288h-432z" fill="none"/><path d="m138.173013 90.208076c-5.821987 9.173986-10.087611 19.247605-12.624094 29.812821-2.536482 10.565217-3.309107 21.477431-2.286578 32.294638 1.022529 10.817208 3.826216 21.39136 8.297497 31.294147 4.471282 9.902787 10.548961 18.998674 17.98686 26.91923s16.134219 14.557376 25.736712 19.641633 19.979735 8.546366 30.711393 10.246092c10.731658 1.699727 21.670852 1.613808 32.374487-.254277 10.703636-1.868084 21.025216-5.492766 30.546664-10.727228 9.521448-5.234461 18.112446-12.007059 25.425016-20.043469 7.312569-8.03641 13.246624-17.22664 17.561806-27.198438s6.952429-20.588684 7.80492-31.420619c.852492-10.831934-.091441-21.730666-2.793564-32.254737-2.702123-10.524072-7.125453-20.529445-13.090821-29.610851-5.965369-9.081405-13.391132-17.114549-21.976505-23.774047s-18.212854-11.854204-28.492477-15.373706-21.070697-5.315629-31.936126-5.315629v98.593424z"/></g></svg>