<svg height="288pt" stroke-linejoin="round" viewBox="0 0 432 288" width="432pt" xmlns="http://www.w3.org/2000/svg"><g stroke-linejoin="round"><path d="m0 288h432v-288h-432z" fill="none"/><path d="m141.549283 85.066626c-6.459951 8.891357-11.387251 18.801045-14.577575 29.318128s-4.598954 21.494149-4.167477 32.475998c.431476 10.98185 2.697012 21.814558 6.702659 32.048912 4.005647 10.234353 9.695261 19.726903 16.832904 28.084011s15.623271 15.461637 25.105 21.018976 19.826659 9.489593 30.605806 11.6337c10.779147 2.144106 21.841425 2.470013 32.728102.964204s21.445161-4.822227 31.237611-9.811729c9.79245-4.989501 18.68161-11.582151 26.298865-19.504565 7.617254-7.922413 13.855836-17.063546 18.457042-27.044332 4.601206-9.980787 7.500545-20.661332 8.577786-31.598734 1.07724-10.937401.317284-21.978356-2.248356-32.665015-2.56564-10.68666-6.901001-20.869236-12.826305-30.125475-5.925304-9.25624-13.357499-17.456404-21.988386-24.260447-8.630886-6.804042-18.33949-12.116595-28.723214-15.717357-10.383723-3.600761-21.297024-5.439262-32.287347-5.439262v98.548144z" fill="#fff"/></g></svg>