<svg height="288pt" stroke-linejoin="round" viewBox="0 0 432 288" width="432pt" xmlns="http://www.w3.org/2000/svg"><g stroke-linejoin="round"><path d="m0 288h432v-288h-432z" fill="none"/><g fill="#fff"><path d="m145.253493 80.166915c-7.086732 8.566386-12.672661 18.270812-16.52071 28.701403-3.84805 10.430592-5.902998 21.437666-6.077629 32.55406s1.533561 22.182585 5.052077 32.7289 8.796864 20.421412 15.611021 29.206171c6.814156 8.784759 15.066336 16.353116 24.406299 22.383855 9.339963 6.030738 19.633678 10.437315 30.444259 13.032707 10.810581 2.595391 21.982893 3.342353 33.042759 2.209181s21.848575-4.130215 31.90823-8.863929c10.059656-4.733714 19.245899-11.136169 27.168848-18.93563 7.922948-7.799462 14.468905-16.884007 19.360046-26.868067s8.057277-20.724362 9.364031-31.765064c1.306753-11.040703.735372-22.223369-1.689893-33.073383s-6.669611-21.211675-12.552899-30.645214c-5.883289-9.433538-13.321092-17.803578-21.997734-24.75488-8.676643-6.951302-18.467612-12.384111-28.957359-16.067848-10.489748-3.683737-21.527742-5.565539-32.645508-5.565539v98.526332z"/><path d="m221.16934 44.443638c-14.502675-.000002-28.828059 3.202099-41.950473 9.377037s-24.72102 15.171737-33.965374 26.34624l3.795792 3.140153c8.782137-10.615778 19.800812-19.162737 32.267106-25.028928 12.466293-5.866191 26.075407-8.908187 39.852949-8.908186z"/></g></g></svg>