<svg height="288pt" stroke-linejoin="round" viewBox="0 0 432 288" width="432pt" xmlns="http://www.w3.org/2000/svg"><g stroke-linejoin="round"><path d="m0 288h432v-288h-432z" fill="none"/><g><path d="m149.513178 75.538084c-7.703032 8.202895-13.94484 17.664602-18.454364 27.974228-4.509523 10.309625-7.220523 21.315739-8.015271 32.54038-.794747 11.224641.338432 22.502937 3.350327 33.345108s7.858266 21.088964 14.328651 30.295391 14.469745 17.237262 23.650692 23.743751 19.408628 11.393063 30.238888 14.447512c10.830259 3.054449 22.104019 4.23191 33.331694 3.481248s22.244351-3.418421 32.571606-7.887423 19.813401-10.673606 28.046482-18.344365c8.233082-7.67076 15.09217-16.695004 20.279396-26.680837 5.187225-9.985834 8.626396-20.786583 10.168161-31.933203 1.541764-11.14662 1.163476-22.475388-1.118437-33.494328-2.281913-11.018941-6.433933-21.566206-12.275751-31.18376s-13.287628-18.164132-22.014081-25.268581c-8.726452-7.10445-18.605372-12.662419-29.207746-16.432543-10.602375-3.770124-21.772474-5.697026-33.025215-5.697026v98.570818z"/><path d="m221.36821 44.443636c-13.465462 0-26.789202 2.759214-39.147191 8.106994-12.35799 5.347779-23.490098 13.171555-32.707841 22.987454l3.592751 3.373819c8.756856-9.325104 19.332359-16.757692 31.072449-21.838082 11.74009-5.080391 24.397643-7.701644 37.189832-7.701644z"/></g></g></svg>