<svg height="288pt" stroke-linejoin="round" viewBox="0 0 432 288" width="432pt" xmlns="http://www.w3.org/2000/svg"><g stroke-linejoin="round"><path d="m0 288h432v-288h-432z" fill="none"/><g><path d="m153.888892 71.189486c-8.306981 7.800775-15.200313 16.981831-20.373774 27.13532-5.17346 10.153489-8.549292 21.126801-9.97753 32.432471-1.428237 11.305669-.887415 22.77377 1.598442 33.894855 2.485858 11.121086 6.879387 21.728004 12.985416 31.349566 6.106029 9.621561 13.832782 18.113151 22.837015 25.09755 9.004232 6.984398 19.150609 12.356628 29.988399 15.878039 10.83779 3.521412 22.204099 5.139077 33.594003 4.781134 11.389904-.357942 22.63221-2.686112 33.227503-6.881085 10.595292-4.194974 20.384322-10.193699 28.932233-17.729696s15.726225-16.495999 21.216062-26.481975 9.208682-20.847836 10.991335-32.103065 1.60232-22.734659-.532989-33.928339c-2.135309-11.193681-6.193499-21.933369-11.994294-31.741978s-13.257008-18.538712-22.037412-25.802495c-8.780405-7.263782-18.753029-12.952066-29.474861-16.812163s-22.03172-5.833989-33.427247-5.833989v98.68174z"/><path d="m221.441188 44.443636c-12.437313.000001-24.763248 2.351299-36.32717 6.92978-11.563921 4.578481-22.158715 11.302142-31.225126 19.81607l3.377615 3.596794c8.613091-8.088231 18.678145-14.475709 29.66387-18.825266 10.985726-4.349557 22.695364-6.58329 34.510812-6.583291z"/></g></g></svg>