<svg height="288pt" stroke-linejoin="round" viewBox="0 0 432 288" width="432pt" xmlns="http://www.w3.org/2000/svg"><g stroke-linejoin="round"><path d="m0 288h432v-288h-432z" fill="none"/><g fill="#fff"><path d="m158.424177 67.120166c-8.892592 7.356593-16.427982 16.214562-22.263838 26.171491-5.835856 9.95693-9.882446 20.85972-11.955933 32.213059-2.073486 11.353339-2.141989 22.982656-.202394 34.359634 1.939594 11.376978 5.857462 22.326683 11.575615 32.351671 5.718153 10.024987 13.148668 18.971113 21.953978 26.431955 8.805311 7.460843 18.850024 13.321683 29.677812 17.316264 10.827787 3.994581 22.272158 6.061481 33.813198 6.106802 11.54104.045322 23.001292-1.931633 33.860118-5.841052 10.858826-3.909418 20.949259-9.691189 29.812894-17.082646s16.364182-16.278949 22.160892-26.258718c5.796711-9.979769 9.800455-20.898366 11.829342-32.25976 2.028888-11.361394 2.051722-22.990891.067466-34.360164-1.984257-11.369274-5.945093-22.303509-11.702569-32.305965-5.757477-10.002455-13.223065-18.919333-22.057606-26.34554-8.83454-7.426207-18.902191-13.247557-29.745582-17.199587-10.84339-3.95203-22.29579-5.973974-33.836919-5.973974v98.814084z"/><path d="m221.410642 44.443636c-11.41081.000001-22.735866 1.976541-33.472077 5.841816s-20.722209 9.561189-29.514388 16.834714l3.149323 3.806877c8.352571-6.909848 17.839269-12.320966 28.03867-15.992977 10.1994-3.672012 20.958203-5.549724 31.798472-5.549725z"/></g></g></svg>