<svg height="288pt" stroke-linejoin="round" viewBox="0 0 432 288" width="432pt" xmlns="http://www.w3.org/2000/svg"><g stroke-linejoin="round"><path d="m0 288h432v-288h-432z" fill="none"/><g fill="#fff"><path d="m163.456274 63.283292c-9.426323 6.848627-17.565134 15.313494-24.038403 25.001428-6.473268 9.687934-11.179195 20.446581-13.8992 31.776225-2.720006 11.329644-3.411315 23.052115-2.041817 34.622929 1.369498 11.570815 4.778265 22.808009 10.067971 33.18964 5.289707 10.381632 12.377168 19.744438 20.933184 27.653536 8.556017 7.909099 18.446038 14.240112 29.210692 18.698977 10.764655 4.458864 22.234658 6.975461 33.877253 7.432899s23.274689-1.151477 34.355998-4.752013c11.081309-3.600537 21.437567-9.136073 30.587747-16.349495 9.150181-7.213422 16.950389-15.991291 23.038321-25.925894 6.087932-9.934604 10.36785-20.86971 12.640959-32.297406 2.27311-11.427696 2.503665-23.16827.680956-34.676397-1.822709-11.508128-5.670017-22.602831-11.363226-32.768786s-13.142786-19.243291-22.002716-26.810386c-8.859929-7.567094-18.990879-13.504946-29.922288-17.537756-10.93141-4.03281-22.491371-6.097157-34.142948-6.097157v98.645671z"/><path d="m221.438743 44.443636c-10.351345.000002-20.638475 1.629325-30.483189 4.828068-9.844713 3.198742-19.124867 7.927219-27.49928 14.011588l2.899124 3.9903c7.955693-5.78015 16.771839-10.272203 26.124316-13.311008 9.352478-3.038806 19.125252-4.586663 28.959029-4.586664z"/></g></g></svg>