<svg height="288pt" stroke-linejoin="round" viewBox="0 0 432 288" width="432pt" xmlns="http://www.w3.org/2000/svg"><g stroke-linejoin="round"><path d="m0 288h432v-288h-432z" fill="none"/><path d="m168.547625 59.782747c-9.936456 6.305864-18.663314 14.341167-25.766251 23.724417-7.102936 9.38325-12.467736 19.963564-15.839696 31.238624s-4.696858 23.063562-3.911793 34.805826 3.66747 23.249473 8.510366 33.975304c4.842897 10.72583 11.568411 20.49781 19.857239 28.851996 8.288827 8.354187 18.007682 15.156244 28.695145 20.083234 10.687463 4.926989 22.171679 7.899684 33.907415 8.77695s23.53428-.355003 34.835476-3.638303 21.92332-8.564835 31.362067-15.593856c9.438748-7.02902 17.542345-15.692498 23.926057-25.579121s10.94489-20.837412 13.466983-32.33246c2.522093-11.495049 2.964547-23.349515 1.306354-35.000587-1.658192-11.651072-5.390367-22.911401-11.019333-33.246382s-13.064208-19.578428-21.952726-27.291491c-8.888517-7.713063-19.087382-13.771716-30.112386-17.888314s-22.698864-6.224946-34.467343-6.224946v98.534804z"/></g></svg>