<svg height="288pt" stroke-linejoin="round" viewBox="0 0 432 288" width="432pt" xmlns="http://www.w3.org/2000/svg"><g stroke-linejoin="round"><path d="m0 288h432v-288h-432z" fill="none"/><g><path d="m173.686671 56.625105c-10.421065 5.729027-19.718773 13.298549-27.442028 22.341318-7.723256 9.042769-13.745105 19.410139-17.773387 30.59912-4.028283 11.188981-5.996781 23.015648-5.80999 34.90621s2.5258 23.649561 6.903547 34.70649 10.72227 21.230034 18.725754 30.025749c8.003483 8.795715 17.534366 16.069455 28.130241 21.468324s22.082567 8.834119 33.902779 10.139083c11.820212 1.304965 23.779644.458192 35.298063-2.499235 11.518419-2.957426 22.406485-7.976893 32.135946-14.814872 9.72946-6.837978 18.140381-15.382066 24.824693-25.217732 6.684313-9.835665 11.532138-20.80123 14.308278-32.364681 2.776139-11.563451 3.434958-23.534708 1.944492-35.332965-1.490467-11.798257-5.105717-23.229573-10.670352-33.739339-5.564634-10.509767-12.987181-19.925223-21.907524-27.789563-8.920342-7.86434-19.191847-14.048289-30.316174-18.251822-11.124328-4.203533-22.918615-6.357553-34.810644-6.357553v98.481248z"/><path d="m221.130374 44.443637c-8.261188-.000001-16.489643 1.039494-24.49129 3.093967-8.001648 2.054473-15.713079 5.107644-22.952413 9.087501l2.372184 4.314989c6.877368-3.780864 14.203228-6.681376 21.804793-8.633126 7.601565-1.951749 15.418597-2.939269 23.266725-2.939268z"/></g></g></svg>