<svg height="288pt" stroke-linejoin="round" viewBox="0 0 432 288" width="432pt" xmlns="http://www.w3.org/2000/svg"><g stroke-linejoin="round"><path d="m0 288h432v-288h-432z" fill="none"/><g fill="#fff"><path d="m179.286574 53.816732c-10.878232 5.118907-20.727758 12.186739-29.060362 20.85316s-15.008297 18.785835-19.696181 29.856648c-4.687884 11.070812-7.309202 22.907032-7.734022 34.921967-.42482 12.014936 1.353994 24.006734 5.248273 35.380992 3.894278 11.374258 9.838596 21.939886 17.538308 31.173173 7.699712 9.233286 17.025462 16.979111 27.514995 22.853532 10.489534 5.874422 21.966626 9.778749 33.862385 11.519454 11.895759 1.740706 24.010336 1.288545 35.74324-1.33407 11.732904-2.622614 22.887022-7.371622 32.90947-14.011627 10.022449-6.640004 18.744851-15.059453 25.734859-24.841015 6.990007-9.781561 12.130186-20.760904 15.165752-32.393809s3.91552-23.723939 2.596246-35.673778-4.815614-23.557726-10.315713-34.248285-12.911555-20.284188-21.867002-28.305355c-8.955446-8.021167-19.30443-14.335116-30.533978-18.628878-11.229548-4.293763-23.151002-6.495204-35.173446-6.495204v98.484893z"/><path d="m221.219403 44.443637c-7.226586-.000001-14.431268.795403-21.483814 2.371834-7.052546 1.57643-13.910204 3.924331-20.449015 7.001261l2.096642 4.45559c6.211869-2.923083 12.726645-5.153589 19.426563-6.651198 6.699919-1.497609 13.544367-2.253243 20.409624-2.253243z"/></g></g></svg>