<svg height="288pt" stroke-linejoin="round" viewBox="0 0 432 288" width="432pt" xmlns="http://www.w3.org/2000/svg"><g stroke-linejoin="round"><path d="m0 288h432v-288h-432z" fill="none"/><path d="m185.11023 51.363867c-11.306037 4.476377-21.686497 11.006978-30.615824 19.261163-8.929326 8.254184-16.254236 18.09026-21.603875 29.010232s-8.632174 22.736387-9.681412 34.850987.152832 24.319424 3.545351 35.996549c3.392518 11.677125 8.917249 22.6261 16.294477 32.292585s16.480316 17.884544 26.84838 24.238102c10.368063 6.353557 21.823123 10.733547 33.785216 12.918213s24.225876 2.136506 36.170441-.142042c11.944566-2.278548 23.364872-6.74837 33.682716-13.183161 10.317843-6.434792 19.356106-14.724092 26.657187-24.448219s12.739649-20.716155 16.040352-32.419565c3.300703-11.703409 4.40688-23.917297 3.262528-36.023283-1.144353-12.105986-4.519592-23.896256-9.95483-34.773875-5.435239-10.87762-12.837175-20.655863-21.831054-28.839663s-19.425309-14.632672-30.766155-19.020114c-11.340846-4.387443-23.396428-6.63814-35.55638-6.63814v98.545768z"/></g></svg>