<svg height="288pt" stroke-linejoin="round" viewBox="0 0 432 288" width="432pt" xmlns="http://www.w3.org/2000/svg"><g stroke-linejoin="round"><path d="m0 288h432v-288h-432z" fill="none"/><path d="m191.0144 49.263687c-11.680963 3.795376-22.5495 9.742646-32.043684 17.534323-9.494184 7.791676-17.447524 17.291123-23.448813 28.007199-6.00129 10.716076-9.945291 22.460861-11.628088 34.627124s-1.074882 24.540654 1.792316 36.483389c2.867198 11.942736 7.943398 23.244386 14.966151 33.320631 7.022752 10.076245 15.868904 18.750385 26.08109 25.573949 10.212185 6.823564 21.611322 11.676891 33.60805 14.309055 11.996727 2.632164 24.380668 2.997007 36.511547 1.075664 12.130878-1.921343 23.795963-6.095178 34.392145-12.305708s19.937644-14.348847 27.541412-23.994181 13.336501-20.628543 16.901803-32.381772c3.565303-11.753228 4.900653-24.070369 3.937011-36.314598-.963642-12.24423-4.209378-24.200831-9.569396-35.251621s-12.740324-21.001981-21.75934-29.339073c-9.019016-8.337093-19.518582-14.913886-30.955849-19.390346s-23.611667-6.774086-35.893758-6.774086v98.481931z" fill="#fff"/></g></svg>