<svg height="288pt" stroke-linejoin="round" viewBox="0 0 432 288" width="432pt" xmlns="http://www.w3.org/2000/svg"><g stroke-linejoin="round"><path d="m0 288h432v-288h-432z" fill="none"/><g><path d="m196.915417 47.536532c-12.017911 3.085677-23.344846 8.415729-33.382903 15.708807-10.038058 7.293078-18.607452 16.418558-25.255841 26.894746-6.64839 10.476188-11.256698 22.115449-13.581672 34.303397-2.324974 12.187949-2.324973 24.706292.000004 36.89424 2.324977 12.187947 6.933287 23.827208 13.581679 34.303394 6.648391 10.476186 15.217787 19.601665 25.255847 26.894741 10.038059 7.293075 21.364995 12.623126 33.382906 15.7088 12.017912 3.085674 24.511553 3.871707 36.821437 2.316606s24.215536-5.423483 35.088506-11.400949c10.87297-5.977467 20.518519-13.95696 28.427498-23.517275 7.90898-9.560315 13.939738-20.530223 17.773934-32.330669 3.834197-11.800446 5.403161-24.220078 4.624073-36.603317s-3.892273-24.508295-9.175225-35.735138-12.64105-21.354396-21.68589-29.848066c-9.044841-8.493671-19.614428-15.201334-31.150837-19.768922-11.536409-4.567587-23.833018-6.913291-36.240741-6.913291v98.446956z"/><path d="m221.398179 44.443636c-4.125093.000001-8.24611.259274-12.338675.776286-4.092565.517011-8.148592 1.29074-12.144087 2.31661l1.224139 4.767703c3.79572-.974576 7.648946-1.709619 11.536882-2.20078 3.887937-.491161 7.802903-.73747 11.721741-.737471z"/></g></g></svg>