<svg height="288pt" stroke-linejoin="round" viewBox="0 0 432 288" width="432pt" xmlns="http://www.w3.org/2000/svg"><g stroke-linejoin="round"><path d="m0 288h432v-288h-432z" fill="none"/><g fill="#fff"><path d="m203.101143 46.187716c-12.317895 2.349762-24.07427 7.03116-34.635687 13.79196-10.561416 6.7608-19.73472 15.477356-27.02565 25.680015-7.290931 10.202659-12.566147 21.70483-15.541418 33.886772-2.975271 12.181941-3.596183 24.820861-1.829281 37.235771 1.766901 12.41491 5.889303 24.378758 12.145087 35.246926 6.255784 10.868169 14.530541 20.441895 24.378425 28.205343 9.847884 7.763447 21.08879 13.574633 33.117053 17.120448 12.028263 3.545816 24.623904 4.761413 37.108264 3.581294 12.48436-1.180118 24.629118-4.734369 35.77991-10.471248 11.150791-5.736879 21.103683-13.551467 29.32241-23.02271 8.218728-9.471243 14.552981-20.425926 18.661469-32.273806 4.108487-11.84788 5.91607-24.372276 5.325355-36.898368s-3.568924-24.824796-8.774161-36.233452-12.542305-21.718617-21.615879-30.374376c-9.073574-8.65576-19.717712-15.499018-31.358903-20.161055-11.641192-4.662038-24.066535-7.057593-36.606548-7.057593v98.464799z"/><path d="m221.551606 44.443637c-3.093935-.000001-6.186152.145824-9.266356.436989-3.080204.291164-6.144974.727345-9.184107 1.30709l.922522 4.836036c2.887177-.550758 5.798708-.96513 8.724902-1.241736s5.8638-.41514 8.803038-.415139z"/></g></g></svg>