<svg height="288pt" stroke-linejoin="round" viewBox="0 0 432 288" width="432pt" xmlns="http://www.w3.org/2000/svg"><g stroke-linejoin="round"><path d="m0 288h432v-288h-432z" fill="none"/><g fill="#fff"><path d="m209.253372 45.220617c-12.579198 1.589121-24.734241 5.591372-35.796773 11.786686s-20.826007 14.468019-28.75357 24.363234c-7.927564 9.895214-13.871202 21.228186-17.504099 33.375762s-4.887223 24.88295-3.694008 37.505856c1.193215 12.622907 4.811693 24.897666 10.656467 36.149339 5.844775 11.251673 13.806721 21.270181 23.448042 29.504649 9.641321 8.234467 20.782007 14.531149 32.809477 18.543818 12.027469 4.012668 24.71716 5.666403 37.371318 4.870271 12.654157-.796131 25.036519-4.027264 36.466228-9.515731 11.429709-5.488468 21.693365-13.131796 30.22661-22.509709 8.533245-9.377914 15.176758-20.315319 19.565238-32.210813s6.439991-24.526978 6.041728-37.199898c-.398262-12.672921-3.238861-25.150665-8.365605-36.747131s-12.443911-22.09514-21.549162-30.918742c-9.10525-8.823601-19.828581-15.807387-31.58036-20.567348s-24.312591-7.207223-36.991768-7.207223v98.535516z"/><path d="m221.603147 44.443637c-2.063893-.000001-4.127276.064844-6.187096.194436-2.05982.129593-4.115061.32387-6.162679.582544l.617488 4.887927c1.945238-.245741 3.897716-.430304 5.854545-.553417s3.917043-.184715 5.877741-.184715z"/></g></g></svg>