<svg height="288pt" stroke-linejoin="round" viewBox="0 0 432 288" width="432pt" xmlns="http://www.w3.org/2000/svg"><g stroke-linejoin="round"><path d="m0 288h432v-288h-432z" fill="none"/><path d="m215.357816 44.638318c-12.800139.805315-25.321279 4.098935-36.860953 9.696078-11.539675 5.597143-21.877973 13.391145-30.434891 22.944744s-15.169386 20.684732-19.466431 32.768916c-4.297045 12.084185-6.196777 24.891131-5.592616 37.702341s3.7007 25.382538 9.115896 37.008705c5.415195 11.626167 13.045849 22.085612 22.463863 30.791536 9.418015 8.705924 20.44391 15.492417 32.459109 19.978741 12.015199 4.486325 24.790725 6.586985 37.609844 6.184128s25.437535-3.301553 37.147326-8.533464c11.709791-5.231912 22.287802-12.697335 31.140584-21.977441 8.852781-9.280106 15.811624-20.198043 20.486121-32.141292 4.674498-11.943248 6.975568-24.684203 6.774115-37.508068-.201454-12.823866-2.901591-25.486255-7.948928-37.276781s-12.345686-22.484494-21.485594-31.481948c-9.139908-8.997455-19.947194-16.126931-31.815545-20.988448s-24.571591-7.362429-37.397039-7.362429v98.659277z" fill="#fff"/></g></svg>