<svg height="288pt" stroke-linejoin="round" viewBox="0 0 432 288" width="432pt" xmlns="http://www.w3.org/2000/svg"><g stroke-linejoin="round"><path d="m0 288h432v-288h-432z" fill="none"/><path d="m320.236364 143.28c0-12.979072-2.556595-25.83194-7.523471-37.823039s-12.24744-22.887234-21.42503-32.064824-20.073725-16.458154-32.064824-21.42503-24.843967-7.523471-37.823039-7.523471-25.83194 2.556595-37.823039 7.523471-22.887234 12.24744-32.064824 21.42503-16.458154 20.073725-21.42503 32.064824-7.523471 24.843967-7.523471 37.823039 2.556595 25.83194 7.523471 37.823039 12.24744 22.887234 21.42503 32.064824 20.073725 16.458154 32.064824 21.42503 24.843967 7.523471 37.823039 7.523471 25.83194-2.556595 37.823039-7.523471 22.887234-12.24744 32.064824-21.42503 16.458154-20.073725 21.42503-32.064824 7.523471-24.843967 7.523471-37.823039" fill="#fff"/></g></svg>